<svg xmlns="http://www.w3.org/2000/svg" xmlns:xlink="http://www.w3.org/1999/xlink" width="534.699" height="461.167" viewBox="0 0 534.699 461.167"><defs><linearGradient id="a" x1="0.5" y1="1" x2="0.5" gradientUnits="objectBoundingBox"><stop offset="0" stop-color="gray" stop-opacity="0.251"/><stop offset="0.54" stop-color="gray" stop-opacity="0.122"/><stop offset="1" stop-color="gray" stop-opacity="0.102"/></linearGradient><linearGradient id="b" x1="0.5" y1="1.001" x2="0.5" y2="0" xlink:href="#a"/></defs><g transform="translate(-50.093 -0.09)"><ellipse cx="120.583" cy="25.961" rx="120.583" ry="25.961" transform="translate(341.337 343.916)" opacity="0.1"/><g transform="translate(341.481 61.523)" opacity="0.5"><path d="M705.7,186.326c-1.626.512-3.617,1.845-4.6,5.492-1.923,7.148,2.545,12.007,1.073,19.458a15.3,15.3,0,0,1-2.282,5.46c-1.8,2.7-3.748,3.975-5.643,5.865a19.081,19.081,0,0,0-4.958,9.018,27.576,27.576,0,0,0-.222,11.723,49.147,49.147,0,0,0,2.824,8.216A65.555,65.555,0,0,1,694.8,261.9a27.772,27.772,0,0,1,.639,5.258,51.14,51.14,0,0,1-.571,7.028l-2.733,21.121a70.159,70.159,0,0,0-.747,8.348,45.755,45.755,0,0,0,.873,8.336c.958,5.587,1.991,11.376,4.188,14.333s5.939,1.9,8.238-4.089c2.185-5.726,2.236-13.366,4.165-19.484,3.041-9.638,9.082-10.933,12.437-20.128,3.218-8.848,2.231-19.642,3.862-29.7,1.141-7.211,3.657-13.783,5.135-20.906a73.183,73.183,0,0,0,.217-28.793,39.866,39.866,0,0,0-8.09-17.4c-1.42-1.738-2.944-3.286-4.729-3.444-1.9-.164-3.56,2.484-5.437,3.28C710.083,186.6,707.9,185.63,705.7,186.326Z" transform="translate(-688.542 -182.368)"/><path d="M724.03,183.23s-3.218,91.219-16.75,145.007" transform="translate(-696.59 -182.686)" fill="none" stroke="#535461" stroke-miterlimit="10" stroke-width="2"/><path d="M710.41,198s14.463,14.586,11.719,42.342" transform="translate(-697.934 -188.121)" fill="none" stroke="#535461" stroke-miterlimit="10" stroke-width="2"/><path d="M689.14,263.68s23.739,5.29,21.976,21.019" transform="translate(-688.799 -212.293)" fill="none" stroke="#535461" stroke-miterlimit="10" stroke-width="2"/><path d="M748.5,215.07s-9.607,9.315-18.165,35.7" transform="translate(-706.489 -194.403)" fill="none" stroke="#535461" stroke-miterlimit="10" stroke-width="2"/><path d="M736.825,332.966s-6.555,5.688-11.815-14.226" transform="translate(-704.205 -232.557)" fill="none" stroke="#535461" stroke-miterlimit="10" stroke-width="2"/><path d="M696.14,353.135s13.367-1.934,14.6-11.205" transform="translate(-691.805 -241.091)" fill="none" stroke="#535461" stroke-miterlimit="10" stroke-width="2"/></g><path d="M752.674,89.369c-3.309.543-7.291,2.244-8.929,7.483-3.212,10.276,6.549,18.056,4.3,28.793a16.6,16.6,0,0,1-4.073,7.742c-3.423,3.735-7.337,5.365-11.045,7.9a22.686,22.686,0,0,0-9.3,12.639,29.322,29.322,0,0,0,.793,17.234c1.74,4.854,4.37,8.475,6.721,12.469a88.312,88.312,0,0,1,7.126,15.61,32.213,32.213,0,0,1,1.894,7.792,52.263,52.263,0,0,1-.462,10.276l-3.395,30.8a71.323,71.323,0,0,0-.65,12.2,52.212,52.212,0,0,0,2.7,12.387c2.579,8.355,5.34,17.063,10.206,21.664s12.5,3.615,16.613-4.942c3.914-8.146,3.195-19.389,6.532-28.142,5.26-13.8,17.629-14.915,23.579-28.009,5.705-12.564,2.516-28.635,4.81-43.233,1.643-10.459,6.093-19.812,8.375-30.107a78.108,78.108,0,0,0-2.636-42.342,64.494,64.494,0,0,0-18.6-26.688c-3.127-2.749-6.441-5.233-10.155-5.688-3.948-.487-7.1,3.191-10.9,4.12C761.774,90.342,757.164,88.63,752.674,89.369Z" transform="translate(-361.725 -85.07)" fill="#313742"/><path d="M797.516,86s3.115,133.909-19.146,211.345" transform="translate(-385.641 -85.379)" fill="none" stroke="#535461" stroke-miterlimit="10" stroke-width="2"/><path d="M759.38,104.68s31.492,23.383,28.794,63.931" transform="translate(-377.485 -92.254)" fill="none" stroke="#535461" stroke-miterlimit="10" stroke-width="2"/><path d="M723.15,198.85s49.7,10.908,47.74,33.836" transform="translate(-361.925 -126.911)" fill="none" stroke="#535461" stroke-miterlimit="10" stroke-width="2"/><path d="M843.119,135.92s-18.89,12.456-33.769,50.185" transform="translate(-398.947 -103.751)" fill="none" stroke="#535461" stroke-miterlimit="10" stroke-width="2"/><path d="M829.875,306.685s-12.951,7.584-25.975-22.5" transform="translate(-396.606 -158.314)" fill="none" stroke="#535461" stroke-miterlimit="10" stroke-width="2"/><path d="M749,332.506s27.459-1.093,29.022-14.586" transform="translate(-373.027 -170.732)" fill="none" stroke="#535461" stroke-miterlimit="10" stroke-width="2"/><path d="M1051.371,652.294a7.471,7.471,0,0,0,2.185-3.653c.285-1.453-.274-3.191-1.529-3.722-1.4-.594-2.9.48-4.039,1.574s-2.442,2.332-3.931,2.1a7.064,7.064,0,0,0,1.849-6.2,2.727,2.727,0,0,0-.513-1.264c-.782-.923-2.191-.524-3.127.2-2.966,2.313-3.794,6.775-3.811,10.794a22.9,22.9,0,0,1-.057-4.424c-.011-1.466-.377-3.16-1.506-3.931a4.208,4.208,0,0,0-2.282-.6,4.437,4.437,0,0,0-3.731,1.175c-1.141,1.34-.839,3.6.149,5.056a15.232,15.232,0,0,0,3.862,3.425,9.01,9.01,0,0,1,2.761,2.913,3,3,0,0,1,.205.518h8.358A23.4,23.4,0,0,0,1051.371,652.294Z" transform="translate(-493.776 -289.483)"/><path d="M208.559,429.339c18.154,25.57,11.1,62.926-.434,92.837-3.862,10.017-8.232,20.615-6.6,31.352,1.991,13.132,12.551,22.751,23.688,27.807a64.556,64.556,0,0,0,63.1-5.757c16.083-11.085,27.6-29.109,43.958-39.688,27.385-17.7,62.22-11.015,91.944,1.176,21.029,8.626,44.021,19.85,64.919,10.832,14.7-6.32,24.869-21.784,30.408-38.152,2.676-7.906,4.615-16.431,9.7-22.751A36.4,36.4,0,0,1,540.3,478.4c37.083-20.356,83.865-9.48,119.853-32.028,24.31-15.243,39.873-44,46.782-73.992s6.087-61.434,4.336-92.312c-1.244-21.949-3.474-45.376-16.134-62.319-13.39-17.916-36.376-24.584-57.148-21.177s-39.611,15.6-56.155,29.9c-20.7,17.866-39.9,40.118-65.324,47.36-17.309,4.929-35.52,2.231-53.377,1.3-29.849-1.561-59.7,1.9-89.388,5.688-28.417,3.64-57.051,7.647-84.111,17.885-19.158,7.249-34.516,20.4-52.607,29.589-11.793,5.991-24.652,7.647-35.811,15.275-13.755,9.4-26.358,25.747-22.82,44.87C181.717,406.645,198.918,415.77,208.559,429.339Z" transform="translate(-127.701 -125.756)" opacity="0.1"/><ellipse cx="243.991" cy="25.961" rx="243.991" ry="25.961" transform="translate(68.279 251.647)" opacity="0.1"/><ellipse cx="87.101" cy="25.961" rx="87.101" ry="25.961" transform="translate(71.13 401.425)" opacity="0.1"/><path d="M523.271,511.48l-1.911,3.078s2.082,3.078,2.282,3.463,6.076-.19,6.076-.19l.519-2.307-.867-2.692Z" transform="translate(-275.258 -241.967)" fill="#e6e6f0"/><path d="M324.212,423.67l-3.822.765,2.43,5.2,2.607,1.536,2.43,1.921.7-2.111-1.74-4.045Z" transform="translate(-140.456 -155.888)" fill="#fdc2cc"/><path d="M513.129,429.508s20.322,5.384,24.138,11.376c0,0,3.474,3.274,0,9.233s-8.335,19.433-8.335,19.433-3.474,13.082-4.861,14.042-9.379,1.732-10.075-1.9c0,0,4.513-7.887,4.513-11.546s7.468-20.969,7.468-20.969-17.018-2.117-22.4-.771S506.009,427.39,513.129,429.508Z" transform="translate(-266.851 -211.747)" fill="#565171"/><path d="M513.129,429.508s20.322,5.384,24.138,11.376c0,0,3.474,3.274,0,9.233s-8.335,19.433-8.335,19.433-3.474,13.082-4.861,14.042-9.379,1.732-10.075-1.9c0,0,4.513-7.887,4.513-11.546s7.468-20.969,7.468-20.969-17.018-2.117-22.4-.771S506.009,427.39,513.129,429.508Z" transform="translate(-266.851 -211.747)" opacity="0.1"/><path d="M469.38,434.8c-.04,1.119-.148,2.376-.3,3.729-1.112,9.8-4.735,24.363-4.735,24.363s-3.646,8.658-4.69,14.238-8.164,6.952-8.164,6.952-19.454,2.528-23.448,1.542-10.269,2.888-13.373,2.307-5.038-8.658-5.038-8.658a34.567,34.567,0,0,0,15.632-3.653c7.987-4.038,19.454-2.117,19.454-2.117a6.735,6.735,0,0,0,3.993-3.653c1.215-2.888,1.215-20.394.867-21.55-2.282-7.584-2.094-12.45-1.438-15.287a8.009,8.009,0,0,1,1.438-3.375Z" transform="translate(-227.272 -211.848)" fill="#565171"/><path d="M498.387,434.785c-.04,1.119-.148,2.376-.3,3.729-1.746.152-6.641.3-10.269-2.187-3.423-2.326-8.4-3.116-10.646-3.362a8.009,8.009,0,0,1,1.438-3.375Z" transform="translate(-256.279 -211.829)" opacity="0.1"/><path d="M499.9,428.682c-.81,2.528-2.054,5.492-2.054,5.492s-6.424.961-10.942-2.117-11.81-3.463-11.81-3.463c1.181-.8,1.98-3.242,2.476-5.378q.416-1.812.65-3.665s21.36,4.809,22.25,5.58C500.8,425.434,500.444,426.963,499.9,428.682Z" transform="translate(-255.386 -208.134)" fill="#e6e6f0"/><path d="M563.85,294.061l-25.907,17.322L535.37,313.1V304.64l1.786-.948,21.834-11.559s1.044-20.969,3.822-17.7S563.85,294.061,563.85,294.061Z" transform="translate(-281.276 -154.601)" fill="#fdc2cc"/><path d="M537.943,328.621l-2.573,1.719v-8.462l1.786-.948A68.666,68.666,0,0,0,537.943,328.621Z" transform="translate(-281.276 -171.839)" opacity="0.1"/><path d="M504.93,331.055l18.582-11.925s.348,11.546,2.43,13.272c0,0-7.639,2.528-10.594,7.887Z" transform="translate(-268.202 -171.177)" fill="#b45181"/><path d="M504.93,331.055l18.582-11.925s.348,11.546,2.43,13.272c0,0-7.639,2.528-10.594,7.887Z" transform="translate(-268.202 -171.177)" opacity="0.1"/><path d="M569.72,342.409s-8.837,4.266-14.691,5.833a10.479,10.479,0,0,1-4.068.518c-3.994-.771,1.044-6.32,1.044-6.32l2.1-.36,11.273-1.947s1.215-19.237,3.3-17.7S569.72,342.409,569.72,342.409Z" transform="translate(-287.311 -172.362)" fill="#fdc2cc"/><path d="M505.156,321.527s-7.468,6.155-4.69,13.853-14.417-4.62-14.417-4.62,5.557-9.233,6.772-16.16S505.156,321.527,505.156,321.527Z" transform="translate(-260.093 -168.796)" fill="#fdc2cc"/><path d="M501.764,428.682a36.189,36.189,0,0,0-10.041-2.591,49.13,49.13,0,0,1-12.283-2.876q.416-1.812.65-3.665s21.36,4.809,22.25,5.58C502.666,425.434,502.312,426.963,501.764,428.682Z" transform="translate(-257.254 -208.134)" opacity="0.1"/><path d="M555.019,359.732a10.481,10.481,0,0,1-4.068.518c-3.994-.771,1.044-6.32,1.044-6.32l2.1-.36A7.377,7.377,0,0,1,555.019,359.732Z" transform="translate(-287.306 -183.852)" opacity="0.1"/><path d="M488.343,332.167s-6.772-.19-9.2,2.888-1.911,11.376-1.911,11.376-.508,16.615,3.3,25.911a1.39,1.39,0,0,1,.04.954c-.04.114-.04.044-.04.044s-2.43,12.121-4.861,14.238,5.209,4.62,14.263,5.77,12.677,4.038,12.677,4.038,1.563-1.9,1.712-6.155-2.413-35.207-2.413-35.207,9.55,2.692,15.284-.575c0,0,2.607,1.542,5.038-2.692s-1.712-8.848-1.712-8.848-3.822,4.234-14.417-1.346S491.635,331.977,488.343,332.167Z" transform="translate(-255.438 -175.973)" fill="#b45181"/><path d="M405.642,509.35H403.56v3.274l2.082,5.195s2.778.575,2.955.575,2.43-.575,2.43-.575l.7-1.346S404.079,513.192,405.642,509.35Z" transform="translate(-224.665 -241.183)" fill="#e6e6f0"/><path d="M519.316,514.032l-3.126,7.7,13.2,6.952,10.423.386s.867-2.692-2.607-4.038l-2.779-.575s-3.645-7.312-3.994-10.744c0,0-3.475.771-3.994,3.653C526.436,517.3,521.576,519.992,519.316,514.032Z" transform="translate(-273.038 -242.787)" fill="#b45181"/><path d="M400.158,508.13l-1.061.961-4.667,4.234,10.766,15.8s6.076,2.888,8.86,0c0,0,1.712-1.9-2.082-3.463a2.427,2.427,0,0,1-2.955-2.692c0-3.267.7-6.731,1.712-7.5,0,0-2.607-.961-3.3-.19a12.242,12.242,0,0,0-1.392,2.117S399.81,514.671,400.158,508.13Z" transform="translate(-220.744 -240.734)" fill="#b45181"/><path d="M496.8,315.211a25.428,25.428,0,0,1-.7,2.882c1.876,5,7,7.437,11.564,5.5a14.982,14.982,0,0,1,1.466-1.46S498.011,308.284,496.8,315.211Z" transform="translate(-264.41 -169.021)" opacity="0.1"/><path d="M495.64,357s5.386,7.887,13.2,8.083" transform="translate(-264.212 -185.114)" opacity="0.1"/><g transform="translate(219.589 156.22)" opacity="0.1"><path d="M551.433,369.143a1.84,1.84,0,0,1-.319-.133q-.251.145-.514.272A2.951,2.951,0,0,0,551.433,369.143Z" transform="translate(-507.406 -345.754)"/><path d="M551.864,351.551a9.294,9.294,0,0,0-.6-.771,6.146,6.146,0,0,1-3.959,1.5A8.739,8.739,0,0,0,551.864,351.551Z" transform="translate(-505.988 -339.045)"/><path d="M524.71,369.92l.034.411a31.223,31.223,0,0,0,6.949.632A32.856,32.856,0,0,1,524.71,369.92Z" transform="translate(-496.286 -346.089)"/><path d="M491.331,393.379c-9.031-1.157-16.67-3.653-14.263-5.77s4.861-14.238,4.861-14.238,0,.069.04-.044a1.389,1.389,0,0,0-.04-.954c-3.805-9.322-3.3-25.911-3.3-25.911s-.519-8.272,1.911-11.376c1.809-2.294,6.025-2.768,8.061-2.863a3.335,3.335,0,0,0-.57,0s-6.772-.19-9.2,2.888-1.911,11.375-1.911,11.375-.508,16.615,3.3,25.911a1.39,1.39,0,0,1,.04.954c-.04.114-.04.044-.04.044s-2.413,12.083-4.866,14.2,5.209,4.62,14.263,5.77,12.677,4.038,12.677,4.038a5,5,0,0,0,.479-.777A32.976,32.976,0,0,0,491.331,393.379Z" transform="translate(-474.888 -332.211)"/></g><ellipse cx="9.031" cy="10.004" rx="9.031" ry="10.004" transform="translate(231.342 134.84)" fill="#fdc2cc"/><path d="M501.02,300.168c-.747,2.073-2.978,2.857-4.935,3.394-2.8.758-5.808,1.5-8.483.329a1.7,1.7,0,0,0-1.141-.246,1.576,1.576,0,0,0-.753.727c-2.95,4.651-2.47,10.851-3.235,16.476a9.737,9.737,0,0,1-1.711,4.866c-2.077,2.528-6,2.433-7.907,5.119-1.261,1.769-1.272,4.228-1.261,6.484q0,3.609-.057,7.224a11.687,11.687,0,0,1-.747,4.62c-1.1,2.376-3.537,3.507-5.791,4.424a9.115,9.115,0,0,1-4.359,1.011,3.521,3.521,0,0,1-3.206-2.932c-.268-2.262,1.837-3.842,3.286-5.473,2.316-2.6,3.269-6.377,3.355-10.029a11.811,11.811,0,0,0-.57-4.342c-.531-1.434-1.478-2.642-2.048-4.057-1.757-4.361.411-9.4,3.007-13.221s5.785-7.539,6.338-12.273a18.742,18.742,0,0,1,.394-3.04c.4-1.378,1.346-5.182,2.39-6.054a11.807,11.807,0,0,1,5.705-2.629c1.6-.259,3.241-.164,4.832-.506,1.86-.4,3.589-1.378,5.448-1.744,4.022-.79,8.386,4.386,10.149,8.468C500.2,298.013,501.476,298.9,501.02,300.168Z" transform="translate(-247.792 -159.799)" opacity="0.1"/><path d="M501.02,299.558c-.747,2.073-2.978,2.856-4.935,3.394-2.8.758-5.808,1.5-8.483.329a1.7,1.7,0,0,0-1.141-.246,1.576,1.576,0,0,0-.753.727c-2.95,4.651-2.47,10.851-3.235,16.476a9.737,9.737,0,0,1-1.711,4.866c-2.077,2.528-6,2.433-7.907,5.119-1.261,1.77-1.272,4.228-1.261,6.484q0,3.609-.057,7.223a11.686,11.686,0,0,1-.747,4.62c-1.1,2.376-3.537,3.508-5.791,4.424a9.114,9.114,0,0,1-4.359,1.011,3.521,3.521,0,0,1-3.206-2.932c-.268-2.262,1.837-3.842,3.286-5.473,2.316-2.6,3.269-6.377,3.355-10.029a11.811,11.811,0,0,0-.57-4.342c-.531-1.435-1.478-2.642-2.048-4.057-1.757-4.361.411-9.4,3.007-13.221s5.785-7.539,6.338-12.273a18.743,18.743,0,0,1,.394-3.04c.4-1.378,1.346-5.182,2.39-6.054a11.806,11.806,0,0,1,5.705-2.629c1.6-.259,3.241-.164,4.832-.506,1.86-.4,3.589-1.378,5.448-1.744,4.022-.79,8.386,4.386,10.149,8.468C500.2,297.4,501.476,298.288,501.02,299.558Z" transform="translate(-247.792 -159.574)" fill="#f569bc"/><path d="M585,276.09H735.142v166.3H585Z" transform="translate(-302.591 -155.337)" fill="#f7df1e"/><path d="M654.21,459l11.49-7.7c2.219,4.354,4.233,8.039,9.071,8.039,4.638,0,7.559-2.01,7.559-9.821V396.37h14.109v53.358c0,16.185-8.557,23.554-21.063,23.554-11.285,0-17.834-6.478-21.16-14.289m49.886-1.675,11.484-7.369c3.024,5.473,6.955,9.48,13.909,9.48,5.848,0,9.573-3.236,9.573-7.7,0-5.359-3.828-7.255-10.269-10.383l-3.526-1.675c-10.178-4.8-16.933-10.826-16.933-23.554,0-11.723,8.061-20.653,20.658-20.653,8.968,0,15.4,3.463,20.053,12.5l-10.982,7.818c-2.419-4.8-5.038-6.7-9.071-6.7a6.432,6.432,0,0,0-6.755,6.7c0,4.689,2.619,6.585,8.666,9.48l3.526,1.675c11.981,5.688,18.747,11.5,18.747,24.558,0,14.068-9.978,21.772-23.391,21.772-13.122,0-21.565-6.952-25.673-15.964" transform="translate(-332.316 -199.268)"/><path d="M894.376,566.784s-5.859.455-9.476-6.5a23.478,23.478,0,0,0-2.493-3.925,14.368,14.368,0,0,1-1.751-7.046c.2-5.151-4.65-33.362-4.65-33.362s.6-10.743-4.244-17.461c-3.2-4.424-7.788-17.063-10.555-25.228a1.48,1.48,0,0,0,.651.379l-.114-.7h.114l-1.432-8.715a40.349,40.349,0,0,1-5.226-8.772l.325-.076,4.29-1s6.972-10.977,7.417-16.374h1.375a151.591,151.591,0,0,1,19.318,1.119h0c0-.032-.046-.171-.1-.392h0a29.445,29.445,0,0,1-.627-3.305h.4l3.994-.291s13.744-17.013,8.689-20.147S889.967,429.1,889.967,429.1l-1.712.341-.462.095c.045-.076.091-.145.143-.215s-22.432-1.112-25.9-7.167c0,0-9.9-8.734-10.309-14.535a6.574,6.574,0,0,0-3.56-5.587,7.12,7.12,0,0,0-3.931-.815l-4.638.354.325.632H839.8a18.581,18.581,0,0,1-.73-2.275h.1c-.034-.158-.063-.316-.091-.474a11.065,11.065,0,0,0,6.861-5.562,13.227,13.227,0,0,0,1.177-9.328,3.949,3.949,0,0,0,1.363-.044c1.712-.386,2.915-2.307,2.961-4.228v-.449a6.758,6.758,0,0,0-2.253-4.993,33.559,33.559,0,0,1-2.853-2.408,24.16,24.16,0,0,1-2.322-3.981,10.9,10.9,0,0,0-5.477-4.721c-1.672-.632-3.725-.7-5.009.632-.662.689-1.044,1.687-1.786,2.269-1.067.847-2.516.594-3.822.765a7.421,7.421,0,0,0-5.494,4.557,11.468,11.468,0,0,0-.9,4.816,14.189,14.189,0,0,0,.365,3.381c.251,1.1.622,2.161.9,3.261.57,2.275.7,4.67,1.358,6.914a8.823,8.823,0,0,0,2.527,4.253l-.194.923c-.126,0-3.275.777-5.449,6.042-1.711,4.152-7.536,8.437-10.1,10.168a4.67,4.67,0,0,0-1.906,2.932,16.821,16.821,0,0,0-.325,3.722,28.1,28.1,0,0,0,2.419,11.167c4.444,10.743,7.679,15.445,7.679,15.445s.245,3.293.263,6.762a21.991,21.991,0,0,1-.667,6.446c-.422,1.087-.57,3.861-.536,7.034,0,6.08.536,14.011.536,14.011s1.546.329,3.936.714l1.489,29.02a14.963,14.963,0,0,1-2.853,9.694,20.386,20.386,0,0,1-3.589,3.792c-4.244,3.356-13.339,38.734-13.339,38.734a10.128,10.128,0,0,1,1.176.095l-2.8,8.639s11.171,9.48,17.965,6.889a5.992,5.992,0,0,1,2.282-.354c1.341,0,4.21-1.175,2.613-2.724a110.485,110.485,0,0,1-8.712-10.036,4.549,4.549,0,0,1,.628.411v-.07l.1.07a7.855,7.855,0,0,1,.074-.916l-.1-.038c.205-2.326.856-8.216,2.145-8.9,1.615-.9,13.544-27.093,13.544-27.093l11.924-34.032s9.5,18.138,17.583,21.266v7.584s4.444,22.391,6.065,24.849,0,12.311,0,12.311a5.759,5.759,0,0,0,1.09,1.062l-1.3,8.115s9.3-.449,25.063,4.923C893.367,573.274,899.431,570.367,894.376,566.784ZM857.191,449.692l-1.968.543-.388.107c-.04-.272-.069-.43-.069-.43a3.681,3.681,0,0,1-1.432.386,32,32,0,0,1-1.2-7.552,56.034,56.034,0,0,1-1.2-9.353,7.286,7.286,0,0,1,.8-3.855l.656.057.456.48.034.032.234.234h0l.245.24.04.038.263.259.046.044.268.253h0l.3.278.068.063.319.284h0l.314.278.074.063.348.291.074.057.331.272.057.044.377.3.091.07.4.3h.034l.388.284.091.07.417.3.091.063.388.266.074.05.445.291.108.069.462.284h.034l.451.265.108.063.479.265.1.051.445.227.086.044.5.24.12.057.519.234h0C858.845,440.528,857.191,449.692,857.191,449.692Z" transform="translate(-395.966 -187.434)" fill="url(#a)"/><path d="M808.228,668.16l-3.748,11.584s10.269,8.721,16.944,6.914a17.007,17.007,0,0,1,3.064-.55c1.381-.114,3.76-1.232,2.282-2.648-4.735-4.588-11.051-13.113-11.051-13.113Z" transform="translate(-396.855 -299.629)" fill="#4f4d59"/><path d="M919,664.9l-1.774,11.148s9.077-.436,24.469,4.809c0,0,5.922-2.844.987-6.32,0,0-5.705.436-9.271-6.32s-5.705-5.9-5.705-5.9Z" transform="translate(-445.28 -297.467)" fill="#4f4d59"/><path d="M824.759,526.344l1.712,33.924a15.017,15.017,0,0,1-3.018,9.922,19.473,19.473,0,0,1-3.258,3.368c-4.142,3.28-13.025,37.811-13.025,37.811S817.234,612,820,614.213c0,0,.57-8.74,2.168-9.619s13.219-26.448,13.219-26.448l11.644-33.223s9.271,17.7,17.167,20.767v7.432s4.342,21.86,5.922,24.261,0,12.007,0,12.007,4.564,6.32,14.993-.436c0,0-3.355-4.152-3.155-9.183s-4.564-32.565-4.564-32.565.57-10.491-4.142-17.063S860.7,518.463,860.7,518.463L855.27,505.52Z" transform="translate(-398.011 -239.773)" fill="#c48c96"/><g transform="translate(409.302 265.753)" opacity="0.1"><path d="M809.194,611.367s8.877-34.531,13.025-37.811a19.807,19.807,0,0,0,3.423-3.589,14.91,14.91,0,0,0,2.853-9.695l-1.74-33.931,29.1-19.869-.394-.942L824.98,526.347l1.74,33.931a14.91,14.91,0,0,1-2.853,9.695,19.8,19.8,0,0,1-3.423,3.59c-4.136,3.274-13.025,37.8-13.025,37.8s10.064.632,12.825,2.844a7.389,7.389,0,0,1,.074-.891C816.434,611.841,809.194,611.367,809.194,611.367Z" transform="translate(-807.42 -505.53)"/><path d="M902.963,632.34s1.58-9.619,0-12.008-5.922-24.261-5.922-24.261v-7.445c-7.89-3.059-17.167-20.767-17.167-20.767l-.685,1.984c2.676,4.7,9.813,16.368,16.083,18.795v7.432s4.341,21.86,5.922,24.261,0,12.008,0,12.008a7.873,7.873,0,0,0,7.063,2.654A7.524,7.524,0,0,1,902.963,632.34Z" transform="translate(-838.244 -528.469)"/></g><path d="M952.546,466.617l-3.873.284-2.043.152v-5.467l2.681-.537,1.66-.335s5.135-16.829,10.064-13.771S952.546,466.617,952.546,466.617Z" transform="translate(-457.907 -218.079)" fill="#714b4f"/><path d="M845.517,407s-2.567,10.927-3.355,17.7,18.348,1.315,18.348,1.315-7.3-9.834-3.155-15.079Z" transform="translate(-413.029 -203.515)" fill="#714b4f"/><path d="M865.662,457.338l.394,4.152-6.116-.436-6.116-5.9-6.116-19.022-3.937-6.781L840.81,425.2,842,420.14s.542.524,1.455,1.3c3.007,2.528,10.052,7.843,15.2,6.377a5.706,5.706,0,0,0,.7-.247l7.7,14.643Z" transform="translate(-412.459 -208.351)" fill="#e6e6f0"/><path d="M832.569,418.106s-3.155.632-5.329,5.9c-1.666,4.032-7.3,8.216-9.819,9.9a4.671,4.671,0,0,0-1.911,2.945c-.508,2.49-.7,7.135,2.059,13.815,4.342,10.491,7.5,15.079,7.5,15.079s.787,10.491-.394,13.55,0,19.888,0,19.888,20.715,4.373,27.624,0,5.922-21.2,5.922-21.2,6.51,15.3,8.877,15.736l-1.381-8.525s-7.7-9.183-8.09-20.982c0,0-2.368-10.712-.394-13.549,0,0,33.347,3.059,35.32.436,0,0-21.9-1.093-25.257-7,0,0-9.67-8.525-10.064-14.207a6.37,6.37,0,0,0-2.961-5.151,7.118,7.118,0,0,0-4.422-1.093l-4.456.341s7.7,15.079,7.3,17.063.394,17.923.394,17.923-8.906-21.2-12.825-23.6-8.489-12.286-8.489-12.286l.787-4.993" transform="translate(-401.462 -207.601)" opacity="0.1"/><path d="M865.662,457.338l.394,4.152-6.116-.436-6.116-5.9-6.116-19.022-3.937-6.781L840.81,425.2,842,420.14s.542.524,1.455,1.3l-.274,1.725s4.564,9.871,8.484,12.279,12.825,23.6,12.825,23.6-.787-15.957-.394-17.923c.268-1.333-3.189-8.7-5.437-13.309a5.72,5.72,0,0,0,.7-.247l7.7,14.643Z" transform="translate(-412.459 -208.351)" opacity="0.1"/><path d="M948.673,475.332l-2.043.152v-5.467l2.681-.537C948.376,470.851,948.41,473.278,948.673,475.332Z" transform="translate(-457.907 -226.51)" opacity="0.1"/><path d="M832.569,417.08s-3.155.632-5.329,5.9c-1.666,4.032-7.3,8.216-9.819,9.9a4.67,4.67,0,0,0-1.911,2.945c-.508,2.49-.7,7.135,2.059,13.815,4.342,10.491,7.5,15.079,7.5,15.079s.787,10.491-.394,13.55,0,19.888,0,19.888,20.715,4.373,27.624,0,5.922-21.2,5.922-21.2,6.5,15.275,8.877,15.742l-1.381-8.525s-7.7-9.183-8.09-20.982c0,0-2.368-10.712-.394-13.55,0,0,7.7,9.183,16.38,8.961a147.665,147.665,0,0,1,18.941,1.094s-1.974-7,0-9.619c0,0-21.9-1.093-25.257-7,0,0-9.67-8.525-10.064-14.207a6.37,6.37,0,0,0-2.961-5.151,7.118,7.118,0,0,0-4.421-1.093l-4.456.341s7.7,15.079,7.3,17.063.393,17.923.393,17.923-8.906-21.215-12.825-23.617-8.489-12.26-8.489-12.26l.787-4.993" transform="translate(-401.462 -207.225)" fill="#c48c96"/><path d="M833.856,453.39s4.735,17.7,7.5,19.888,19.534,13.335,24.469,10.712c0,0,1.187,6.56-.57,8.089,0,0-18.4-.8-18.547-.872,0,0-12.038-1.751-14.012-8.3s-4.342-17.7-4.342-17.7Z" transform="translate(-407.107 -220.588)" opacity="0.1"/><ellipse cx="0.69" cy="1.093" rx="0.69" ry="1.093" transform="translate(451.332 250.617)" fill="#ba7855"/><ellipse cx="0.69" cy="1.093" rx="0.69" ry="1.093" transform="translate(453.3 258.264)" fill="#ba7855"/><g transform="translate(413.743 209.836)" opacity="0.1"><path d="M826.059,497.911s-1.187-16.829,0-19.888.394-13.55.394-13.55-3.155-4.588-7.5-15.079c-2.767-6.68-2.567-11.325-2.059-13.815a4.671,4.671,0,0,1,1.911-2.945c2.516-1.706,8.147-5.871,9.818-9.9a11.172,11.172,0,0,1,3.868-5.2l.074-.48s-3.155.632-5.329,5.9c-1.666,4.032-7.3,8.216-9.819,9.9a4.671,4.671,0,0,0-1.911,2.945c-.508,2.49-.7,7.135,2.059,13.815,4.342,10.491,7.5,15.079,7.5,15.079s.787,10.491-.394,13.55,0,19.888,0,19.888,14.8,3.122,23.551,1.447C839.386,500.749,826.059,497.911,826.059,497.911Z" transform="translate(-815.205 -417.05)"/><path d="M875.412,443.4c-.268,1.346,0,9.265.223,14.118.953,2.155,1.552,3.59,1.552,3.59s-.787-15.957-.394-17.923c.376-1.9-6.555-15.584-7.245-16.937l-1.438.107S875.812,441.436,875.412,443.4Z" transform="translate(-837.927 -420.436)"/><path d="M907.3,477.221c-8.683.221-16.379-8.961-16.379-8.961a3.686,3.686,0,0,0-.5,1.182c2.282,2.351,8.558,8.171,15.5,7.994a147.641,147.641,0,0,1,18.941,1.093s-.04-.145-.1-.392a141.945,141.945,0,0,0-17.458-.916Z" transform="translate(-847.509 -435.897)"/><path d="M893,511.49s.08,1.365.034,3.413c2.054,4.512,5.791,12.229,7.462,12.538l-.291-1.795C897.336,521.652,893,511.49,893,511.49Z" transform="translate(-848.617 -451.806)"/></g><path d="M897.052,497.022l-4.193.98-3.309.771,1.774-5.467,1.238-.341,1.923-.531s2.761-15.3,8.289-14.207S897.052,497.022,897.052,497.022Z" transform="translate(-433.392 -229.708)" fill="#714b4f"/><path d="M892.869,506.647l-3.309.771,1.774-5.467,1.238-.341A24.128,24.128,0,0,1,892.869,506.647Z" transform="translate(-433.396 -238.334)" opacity="0.1"/><path d="M833.856,452.7s4.735,17.7,7.5,19.888,19.534,13.335,24.469,10.712c0,0,1.187,6.56-.57,8.089,0,0-18.4-.8-18.547-.872,0,0-12.038-1.751-14.012-8.3s-4.342-17.7-4.342-17.7Z" transform="translate(-407.107 -220.334)" fill="#c48c96"/><path d="M847.7,407.74s-.4,1.713-.936,4.2c2.246,4.713,7.065,7.174,11.758,6-.474-2.243-.371-4.512,1.016-6.269Z" transform="translate(-415.014 -203.788)" opacity="0.1"/><ellipse cx="10.657" cy="11.805" rx="10.657" ry="11.805" transform="translate(430.314 190.396)" fill="#714b4f"/><path d="M861.091,388.119a5.17,5.17,0,0,0,2.373.164,4.276,4.276,0,0,0,2.887-4.127,6.575,6.575,0,0,0-2.2-4.873c-.9-.834-1.98-1.422-2.807-2.351a24.582,24.582,0,0,1-2.282-3.887,10.64,10.64,0,0,0-5.346-4.607c-1.632-.632-3.634-.682-4.889.632a21.988,21.988,0,0,1-1.74,2.218c-1.044.822-2.459.581-3.731.746A7.235,7.235,0,0,0,838,376.459a12.24,12.24,0,0,0-.525,7.584c.246,1.074.611,2.111.873,3.16.57,2.225.685,4.557,1.324,6.75s1.957,4.342,3.954,5a15.137,15.137,0,0,1,1.272-7.135,1.465,1.465,0,0,1,1.986-1.112,9.976,9.976,0,0,0,7.217-1.618c.759-.506,1.94-2.25,2.744-2.421C857.879,386.469,860.007,387.853,861.091,388.119Z" transform="translate(-410.866 -189.166)" opacity="0.1"/><path d="M861.091,387.429a5.169,5.169,0,0,0,2.373.164,4.276,4.276,0,0,0,2.887-4.127,6.575,6.575,0,0,0-2.2-4.872c-.9-.834-1.98-1.422-2.807-2.351a24.583,24.583,0,0,1-2.282-3.887,10.64,10.64,0,0,0-5.346-4.607c-1.632-.632-3.634-.683-4.889.632a22.006,22.006,0,0,1-1.74,2.218c-1.044.822-2.459.581-3.731.746A7.236,7.236,0,0,0,838,375.769a12.24,12.24,0,0,0-.525,7.584c.246,1.074.611,2.111.873,3.16.57,2.225.685,4.556,1.324,6.749s1.957,4.342,3.954,5a15.131,15.131,0,0,1,1.284-7.129,1.464,1.464,0,0,1,1.985-1.112,9.977,9.977,0,0,0,7.217-1.618c.759-.506,1.94-2.25,2.744-2.42C857.879,385.78,860.007,387.164,861.091,387.429Z" transform="translate(-410.866 -188.912)" fill="#503f43"/><path d="M993.66,337.49l-8.695,107.878-39.08,12.008-38.971-12.008L898.23,337.49Z" transform="translate(-437.12 -177.934)" fill="#e44d26"/><path d="M981.86,453.337l31.578-9.694,7.417-92.192H981.86Z" transform="translate(-473.038 -183.072)" fill="#f16529"/><path d="M942.413,385.624h16.9V372.39H929.36l.285,3.552,2.938,36.465h26.734V399.173H943.509Zm2.716,33.4H933.148L934.82,439.8l24.441,7.546h.057V433.54h-.051l-13.3-3.981Z" transform="translate(-450.49 -190.778)" fill="#ebebeb"/><path d="M913.8,291.09h6.07v6.642h5.551V291.09h6.07v20.122h-6.07v-6.737H919.87v6.737H913.8Zm25.673,6.674h-5.346V291.09h16.762v6.674h-5.346v13.448h-6.065V297.764h0Zm14.08-6.674h6.333l3.9,7.072,3.891-7.072h6.333v20.122h-6.047V301.24l-4.176,7.154h-.1L959.5,301.24v9.972h-5.945Zm23.471,0h6.07v13.467h8.558v6.648H977.041V291.09Z" transform="translate(-443.807 -160.858)"/><path d="M981.79,412.4H996.5l-1.386,17.164-13.321,3.981v13.8l24.492-7.521.177-2.237,2.807-34.841.291-3.552H981.79v13.234Zm0-26.815v.032h28.856l.24-2.977.571-6.712.286-3.552H981.79v13.2Z" transform="translate(-473.008 -190.774)" fill="#fff"/><path d="M386.434,433.47c-1.113-3.609-2.716-8.216-3.994-9.265a1.181,1.181,0,0,0-.251-.171h-.16v-4.455l-3,.531a34.635,34.635,0,0,1-1.09-4.936,1.927,1.927,0,0,0,2.254.5c-.051-.089-.091-.183-.137-.278l.137-.063a6.7,6.7,0,0,1-.725-3.027,12.115,12.115,0,0,1,.417-2.856c.536-2.054,1.443-3.975,1.951-6.035a17.416,17.416,0,0,0-.947-10.813,3.913,3.913,0,0,0-1.061-1.536,13.167,13.167,0,0,0-1.3-.7,7.445,7.445,0,0,1-1.888-2.086,16.975,16.975,0,0,0-8.2-6.061,4.359,4.359,0,0,0-2.619-.228c-2.014.632-2.75,3.368-4.382,4.816-1.443,1.264-3.423,1.409-5.226,1.839a8.643,8.643,0,0,0-4.866,2.825,6.236,6.236,0,0,0-1.306,3.906,4.1,4.1,0,0,0,1.443,3.489,4.154,4.154,0,0,0,3.822.6,15.76,15.76,0,0,0,1.35,11.434,13.128,13.128,0,0,0,8.491,6.672l.354.7h0a31.85,31.85,0,0,1,2.436,7.059c-2.761,1.738-5.779,3.362-7.6,3.514a15.575,15.575,0,0,1-.394,2.332,13.435,13.435,0,0,1-2.39,5.214c-2.476,3.084-13.618,26.4-13.618,26.4s-.354.929-.924,2.528c-6.92.942-18.211,2.3-21.366,1.6l-12.38-13.031s-3.994,3.381-3.651,7.489l-2.231-2.351s-11.764,9.941,6.812,16.431l28.263,3.634c-2.693,9-5.2,19.471-4.427,25.172h.234a9.673,9.673,0,0,0,1.615-.139l-.051,1.011-2.721,53.989s-.622,9.941,7.736,14.4c0,0,10.218,33.261,6.19,37.034,0,0,.479.278,1.284.67l-8.4,8.216s-6.19,1.713-9.6,1.371a2.48,2.48,0,0,0-2.716,2.029.486.486,0,0,1-.034.215v.664a.435.435,0,0,0,.04.221v.082a2.35,2.35,0,0,0,.068.234v.076c.029.076.063.152.1.227v.051c.04.076.08.152.125.227l.04.063q.074.12.166.24l.046.063c.063.082.131.158.205.24h.034l.228.215.051.044.28.221.068.05.325.209h.051l.348.189h.051l.405.183.086.038.451.164h.074l.485.139h.04l.57.12h.108l.57.095h.108l.656.07c1.272.107,2.989.145,4.975.139h0v.354a.434.434,0,0,0,.04.221v.082a2.317,2.317,0,0,0,.068.234v.076c.029.076.063.152.1.227v.051c.04.076.08.152.126.228l.04.063q.074.12.165.24l.046.063c.063.082.131.158.205.24h.028l.228.215.051.044.28.221.068.051.319.209h.051l.348.19h.051l.4.183.086.038.451.164h.074l.485.139h.04l.57.12h.108l.571.095h.108l.656.069c8.05.689,33.74-1.371,33.74-1.371v-.082h0v-.1h0c.257-1.327,1.489-9.044-2.893-14.75q.2-.227.377-.474s-3.423-6.516-1.546-8.57-9.065-37.4-9.065-37.4-5.882-10.289-2.476-21.948-.308-24.344-.308-24.344,8.13-2.667,8.278-13.745v-1.03a2.98,2.98,0,0,0,.513.038,2.151,2.151,0,0,0,.342,0s-1.546-6.174.308-10.63,5.882-.341,9.6-18.517c2.687-13.151,5.049-28.275,6.156-35.637A20.69,20.69,0,0,0,386.434,433.47Zm-70.641,38.55-2.824-2.97c.936.43,1.974.847,3.132,1.264l10.64,1.384c-4.747.474-9.179.739-10.948.341Z" transform="translate(-180.063 -194.272)" fill="url(#b)"/><path d="M343.336,515.687s-21.9,3.368-26.46,2.357l-12.163-12.8s-11.559,9.77,6.692,16.172l34.06,4.38Z" transform="translate(-180.661 -239.67)" fill="#fdc2cc"/><path d="M343.336,515.687s-21.9,3.368-26.46,2.357l-12.163-12.8s-11.559,9.77,6.692,16.172l34.06,4.38Z" transform="translate(-180.661 -239.67)" opacity="0.05"/><path d="M256.441,450.464l-47.318-14.535L198.58,304.92H314.445L303.891,435.909Z" transform="translate(-136.628 -165.947)" fill="#264de4"/><path d="M338.473,433.815l9.02-111.935H300.14V445.564Z" transform="translate(-180.247 -172.189)" fill="#2965f1"/><path d="M239.012,379.791l1.3,16.065h32.462V379.791ZM236.4,347.27l1.318,16.065h35.052V347.27h-36.4Zm36.37,74.251h-.063l-16.157-4.835-1.033-12.816H240.928l2.031,25.228,29.712,9.157h.068Z" transform="translate(-152.859 -181.533)" fill="#ebebeb"/><path d="M246.38,248.56h17.566v8.14H253.723v8.14h10.224v8.14H246.38Zm21.109,0h17.566v7.078H274.809v1.416h10.224v16.28H267.46V265.9h10.223v-1.416H267.46V248.56Zm21.109,0h17.566v7.078H295.889v1.416h10.224v16.28H288.541V265.9h10.224v-1.416H288.541V248.56Z" transform="translate(-157.158 -145.205)"/><path d="M333.74,379.791l2.619-32.521H300v16.065h20.441l-1.318,16.431H300v16.065h17.863l-1.712,20.855L300,421.533v16.716l29.735-9.132.217-2.717,3.423-42.3.354-4.316Z" transform="translate(-180.187 -181.533)" fill="#fff"/><path d="M371.845,738.19,361.2,748.63s-6.082,1.687-9.425,1.346-4.866,5.726,3.041,6.4,33.147-1.346,33.147-1.346,2.43-10.781-4.866-16.842Z" transform="translate(-201.256 -325.402)" fill="#47465a"/><path d="M371.845,738.19,361.2,748.63s-6.082,1.687-9.425,1.346-4.866,5.726,3.041,6.4,33.147-1.346,33.147-1.346,2.43-10.781-4.866-16.842Z" transform="translate(-201.256 -325.402)" opacity="0.05"/><path d="M388.336,757.47a20.5,20.5,0,0,1-.382,3.653s-25.24,2.022-33.147,1.346c-3.805-.322-5.42-1.9-5.705-3.4-.348,1.732,1.033,4.013,5.705,4.424,7.907.676,33.147-1.346,33.147-1.346A21.5,21.5,0,0,0,388.336,757.47Z" transform="translate(-201.254 -332.497)" fill="#fff" opacity="0.3"/><path d="M410.84,430.48S417.532,440.92,415.1,448s12.774-7.413,12.774-7.413S423,431.112,425.439,421Z" transform="translate(-227.791 -208.668)" fill="#fdc2cc"/><path d="M390.493,744.59l-10.634,10.44s-6.082,1.688-9.425,1.346-4.866,5.726,3.041,6.4,33.147-1.346,33.147-1.346,2.43-10.782-4.867-16.842Z" transform="translate(-209.27 -327.757)" fill="#47465a"/><path d="M389.641,669.463a7.766,7.766,0,0,1-6.161,3.128c-5.317.278-11.171-3.128-11.171-3.128,3.954-3.7-6.082-36.383-6.082-36.383-8.21-4.38-7.6-14.15-7.6-14.15l2.659-53.023.673-13.322,8.518-5.726,6.709,5.688,6.367,5.41a31.15,31.15,0,0,1,.8,5.258c.742,12.38-8.1,15.294-8.1,15.294s3.651,12.462.3,23.92,2.43,21.563,2.43,21.563,10.948,35.037,9.128,37.059S389.641,669.463,389.641,669.463Z" transform="translate(-205.36 -254.988)" fill="#565171"/><path d="M389.641,669.463a7.766,7.766,0,0,1-6.161,3.128c-5.317.278-11.171-3.128-11.171-3.128,3.954-3.7-6.082-36.383-6.082-36.383-8.21-4.38-7.6-14.15-7.6-14.15l2.659-53.023.673-13.322,8.518-5.726,6.709,5.688,6.367,5.41a31.15,31.15,0,0,1,.8,5.258c.742,12.38-8.1,15.294-8.1,15.294s3.651,12.462.3,23.92,2.43,21.563,2.43,21.563,10.948,35.037,9.128,37.059S389.641,669.463,389.641,669.463Z" transform="translate(-205.36 -254.988)" opacity="0.05"/><path d="M404.615,675.846c-5.169,7.072-17.332,0-17.332,0a2.186,2.186,0,0,0,.53-.916c2.231-6.718-7.525-38.835-7.525-38.835-8.21-4.38-9.128-14.82-9.128-14.82l-2.151-53.983-.28-6.99,12.8-5.41,3.931-1.662,13.093,11.117a28.949,28.949,0,0,1,.822,7.065c-.165,10.876-8.136,13.505-8.136,13.505s3.651,12.463.3,23.92,2.447,21.531,2.447,21.531,10.948,35.036,9.128,37.059S404.615,675.846,404.615,675.846Z" transform="translate(-209.706 -257.332)" fill="#565171"/><path d="M397.036,569.071c-2.63-.417-7.953-3.925-10.686-5.827-1.044-.727-1.712-1.213-1.712-1.213s-2.738-8.424-10.035-2.022a26.744,26.744,0,0,1-7.93,4.967,17.089,17.089,0,0,1-3.383.942l.673-13.322,8.518-5.726,6.709,5.688,3.931-1.662,13.093,11.11a28.942,28.942,0,0,1,.822,7.065Z" transform="translate(-207.369 -254.991)" opacity="0.1"/><path d="M412.065,466.564c-1.084,7.23-3.423,22.119-6.047,35-3.651,17.853-7.6,13.809-9.425,18.188s-.3,10.44-.3,10.44c-3.041.335-13.076-7.072-13.076-7.072s-2.738-8.424-10.035-2.022-13.076,6.061-13.076,6.061c-1.523-11.117,9.733-40.762,9.733-40.762s10.948-22.909,13.378-25.911a13.188,13.188,0,0,0,2.35-5.119,15.275,15.275,0,0,0,.388-2.288c3.954-.335,13.692-7.748,13.692-7.748l7.6-1.346v4.38a1.127,1.127,0,0,1,.251.171c1.249,1.055,2.853,5.555,3.919,9.1A20.328,20.328,0,0,1,412.065,466.564Z" transform="translate(-205.94 -217.129)" fill="#e1a0a7"/><path d="M355.6,517.8l-3.931-.506-30.129-3.874c-18.256-6.4-6.692-16.172-6.692-16.172l12.163,12.8c3.509.777,17.275-1.036,23.442-1.9,1.848-.265,3.018-.442,3.018-.442Z" transform="translate(-185.014 -236.73)" fill="#fdc2cc"/><path d="M414.8,457.21s-7.907-7.072-19.791,15.831-14.6,19.2-14.6,19.2,2.43,10.112,1.215,12.128c0,0,8.21-.676,11.25,0s21.9-25.6,21.9-25.6S424.533,463.947,414.8,457.21Z" transform="translate(-214.722 -221.615)" opacity="0.1"/><path d="M414.288,455.08s-7.907-7.072-19.768,15.831-14.6,19.2-14.6,19.2,9.425,11.451,12.466,12.128,21.9-25.6,21.9-25.6S424.021,461.817,414.288,455.08Z" transform="translate(-214.512 -220.831)" opacity="0.1"/><path d="M381.185,523.41a44.567,44.567,0,0,0-1.215-9.157c1.848-.265,3.018-.442,3.018-.442l2.128,10.111Z" transform="translate(-214.533 -242.824)" opacity="0.1"/><path d="M414.8,456.14s-7.907-7.072-19.791,15.837-14.6,19.2-14.6,19.2,2.43,10.112,1.215,12.128c0,0,8.21-.676,11.25,0s21.9-25.6,21.9-25.6S424.533,462.877,414.8,456.14Z" transform="translate(-214.722 -221.221)" fill="#e1a0a7"/><path d="M425.992,422.09l-14.622,9.423q.928,1.491,1.712,3.084a11.629,11.629,0,0,0,2.556.284c3.9,0,5.705-4.531,8.061-7.584C423.528,424.871,425.319,424.807,425.992,422.09Z" transform="translate(-228.019 -209.069)" opacity="0.1"/><ellipse cx="12.774" cy="14.15" rx="12.774" ry="14.15" transform="translate(174.531 196.855)" fill="#fdc2cc"/><path d="M389.023,395.3a8.489,8.489,0,0,1,4.781-2.781c1.774-.423,3.72-.55,5.135-1.807,1.6-1.422,2.322-4.127,4.3-4.733a4.287,4.287,0,0,1,2.573.228,16.672,16.672,0,0,1,8.056,5.953,7.315,7.315,0,0,0,1.86,2.054,12.95,12.95,0,0,1,1.278.689,3.844,3.844,0,0,1,1.038,1.51,16.088,16.088,0,0,1,.924,10.282c-.5,2.029-1.386,3.912-1.917,5.934a8.6,8.6,0,0,0,.3,6.117c-.936.531-2.117-.139-2.7-1.106a12.708,12.708,0,0,1-1.073-3.274,12.7,12.7,0,0,0-3.3-5.688c-.959-.935-2.67-1.567-3.338-.36-.257.468-.24,1.068-.462,1.555a1.777,1.777,0,0,1-2.527.632,4.334,4.334,0,0,1-1.58-2.6c-1.249-4.7-3.389-7.647-7.919-5.644-1.712.746-3.68,1.264-5.306,0C387.066,400.573,387.483,397.217,389.023,395.3Z" transform="translate(-217.864 -195.743)" opacity="0.1"/><path d="M389.023,394.763a8.489,8.489,0,0,1,4.781-2.781c1.774-.423,3.72-.55,5.135-1.807,1.6-1.422,2.322-4.127,4.3-4.733a4.287,4.287,0,0,1,2.573.228,16.671,16.671,0,0,1,8.056,5.953,7.312,7.312,0,0,0,1.86,2.054,12.936,12.936,0,0,1,1.278.689,3.845,3.845,0,0,1,1.038,1.51,16.088,16.088,0,0,1,.924,10.282c-.5,2.029-1.386,3.912-1.917,5.934a8.6,8.6,0,0,0,.3,6.117c-.936.531-2.117-.139-2.7-1.106a12.705,12.705,0,0,1-1.073-3.274,12.7,12.7,0,0,0-3.3-5.688c-.959-.935-2.67-1.567-3.338-.36-.257.468-.24,1.068-.462,1.555a1.777,1.777,0,0,1-2.527.632,4.334,4.334,0,0,1-1.58-2.6c-1.249-4.7-3.389-7.647-7.919-5.643-1.712.746-3.68,1.264-5.306,0C387.066,400.039,387.483,396.684,389.023,394.763Z" transform="translate(-217.864 -195.544)" fill="#8f5a6a"/><path d="M426.755,448.5h-6.179s-12.163,6.737-12.466,6.4c-.205-.228-2.088.164-3.28.436a15.282,15.282,0,0,0,.388-2.288c3.954-.335,13.692-7.748,13.692-7.748l7.6-1.346v4.379A1.133,1.133,0,0,1,426.755,448.5Z" transform="translate(-225.21 -217.118)" opacity="0.05"/><path d="M406.986,763.86a20.491,20.491,0,0,1-.382,3.653s-25.239,2.022-33.147,1.346c-3.805-.322-5.42-1.9-5.705-3.4-.348,1.732,1.033,4.013,5.705,4.424,7.907.676,33.147-1.346,33.147-1.346A21.5,21.5,0,0,0,406.986,763.86Z" transform="translate(-209.264 -334.849)" fill="#fff" opacity="0.3"/><g transform="translate(154.232 231.209)" opacity="0.05"><path d="M370.445,564.087a25.109,25.109,0,0,1-10.115,5.688,5.209,5.209,0,0,0,.08.739s5.779.335,13.076-6.061a9.516,9.516,0,0,1,3.908-2.263C375.8,561.325,373.532,561.382,370.445,564.087Z" transform="translate(-360.33 -491.656)"/><path d="M436.285,460.141c-1.09-3.545-2.67-8.039-3.919-9.1a1.123,1.123,0,0,0-.251-.171,24.208,24.208,0,0,0-2.43.171c1.249,1.055,2.47,5.22,3.56,8.759a20.327,20.327,0,0,1,.662,8.949c-1.084,7.23-3.423,22.119-6.047,35.005-3.651,17.853-7.6,13.809-9.425,18.188-1.495,3.59-.747,8.3-.422,9.89a7.064,7.064,0,0,0,3.161.891s-1.523-6.061.3-10.44,5.779-.335,9.425-18.188c2.641-12.918,4.963-27.807,6.047-35A20.325,20.325,0,0,0,436.285,460.141Z" transform="translate(-384.899 -450.87)"/></g><path d="M496.371,558.294a7.47,7.47,0,0,0,2.185-3.653c.285-1.454-.274-3.191-1.529-3.722-1.4-.594-2.9.48-4.039,1.573s-2.442,2.332-3.931,2.1a7.064,7.064,0,0,0,1.848-6.2,2.73,2.73,0,0,0-.513-1.264c-.782-.923-2.191-.525-3.126.2-2.967,2.313-3.794,6.775-3.811,10.794a22.908,22.908,0,0,1-.057-4.424c-.011-1.466-.377-3.16-1.506-3.931a4.21,4.21,0,0,0-2.282-.6,4.436,4.436,0,0,0-3.731,1.175c-1.141,1.34-.839,3.6.148,5.056a15.231,15.231,0,0,0,3.862,3.425,9.01,9.01,0,0,1,2.761,2.913,3.05,3.05,0,0,1,.205.518h8.358A23.4,23.4,0,0,0,496.371,558.294Z" transform="translate(-255.41 -254.888)"/><path d="M517.6,743.631a10.2,10.2,0,0,0,2.967-4.955c.388-1.966-.371-4.329-2.071-5.056-1.9-.809-3.936.632-5.477,2.13s-3.309,3.16-5.323,2.844a9.579,9.579,0,0,0,2.5-8.405,3.7,3.7,0,0,0-.7-1.706c-1.055-1.264-2.972-.714-4.233.272-3.994,3.16-5.135,9.182-5.163,14.63-.405-1.965-.063-4.013-.074-6.029s-.508-4.247-2.042-5.334a5.673,5.673,0,0,0-3.115-.809c-1.809-.076-3.823.126-5.055,1.593-1.535,1.82-1.141,4.873.2,6.876s3.366,3.261,5.232,4.645a12.219,12.219,0,0,1,3.737,3.95,4.1,4.1,0,0,1,.279.708h11.336a31.726,31.726,0,0,0,6.994-5.353Z" transform="translate(-261.289 -321.559)"/></g></svg>