<svg xmlns="http://www.w3.org/2000/svg" width="91.521" height="31.5" viewBox="0 0 91.521 31.5"><g transform="translate(-55.479 -18.5)"><g transform="translate(55.479 18.5)"><text transform="translate(32.521 21.5)" fill="#3486ff" font-size="20" font-family="Arial-BoldMT, Arial" font-weight="700"><tspan x="0" y="0">Figma</tspan></text><path d="M7.5,8.25A5.25,5.25,0,0,1,12.75,3H18V13.5H12.75A5.25,5.25,0,0,1,7.5,8.25Z" transform="translate(-7.5 -3)" fill="none"/><path d="M18,3h5.25a5.25,5.25,0,1,1,0,10.5H18Z" transform="translate(-7.5 -3)" fill="none"/><path d="M18,18.75A5.25,5.25,0,1,1,23.25,24,5.25,5.25,0,0,1,18,18.75Z" transform="translate(-7.5 -3)" fill="none"/><path d="M7.5,29.25A5.25,5.25,0,0,1,12.75,24H18v5.25a5.25,5.25,0,0,1-10.5,0Z" transform="translate(-7.5 -3)" fill="none"/><path d="M7.5,18.75a5.25,5.25,0,0,1,5.25-5.25H18V24H12.75A5.25,5.25,0,0,1,7.5,18.75Z" transform="translate(-7.5 -3)" fill="none"/></g></g></svg>