<svg xmlns="http://www.w3.org/2000/svg" width="475" height="465.363" viewBox="0 0 475 465.363"><path d="M451.344,683.712a37.813,37.813,0,0,0,11.042-30.364c-1.215-11.34-8.738-21.766-18.5-24.174s-20.883,4.258-23.847,15.168c-1.631-21.034-3.511-42.95-13.282-60.862-8.848-16.219-24.172-27.825-40.78-29.9s-34.094,5.766-44.452,20.768-12.894,36.813-5.64,54.038c5.344,12.689,15.19,22.131,25.506,29.814,33.334,24.615,73.314,34.625,112.584,28.188" transform="translate(-311.75 -223.205)" fill="#f2f2f2"/><path d="M342.963,560.148A291.636,291.636,0,0,1,380.5,602.8a320.958,320.958,0,0,1,42.275,80.853,1.587,1.587,0,1,1-3.021.953,323.263,323.263,0,0,0-24.427-52.9,296.777,296.777,0,0,0-54.575-69.031C339.184,561.226,341.412,558.7,342.963,560.148Z" transform="translate(-316.762 -223.574)" fill="#fff"/><path d="M485.164,683.712a37.812,37.812,0,0,1-11.042-30.364c1.215-11.34,8.738-21.766,18.5-24.174s20.883,4.258,23.847,15.168c1.631-21.034,3.511-42.95,13.282-60.862,8.848-16.219,24.172-27.825,40.78-29.9s34.094,5.766,44.452,20.768,12.894,36.813,5.64,54.038c-5.344,12.689-15.19,22.131-25.505,29.814C561.78,682.814,521.8,692.824,482.53,686.387" transform="translate(-340.304 -223.205)" fill="#f2f2f2"/><path d="M608.108,560.148A291.639,291.639,0,0,0,570.574,602.8,320.958,320.958,0,0,0,528.3,683.657a1.587,1.587,0,1,0,3.021.953c17.015-47.562,44.177-89.482,79-121.927,1.564-1.457-.664-3.98-2.215-2.535Z" transform="translate(-349.855 -223.574)" fill="#fff"/><ellipse cx="25.542" cy="29.233" rx="25.542" ry="29.233" transform="translate(141.946 150.878)" fill="#f2f2f2"/><path d="M404.759,287.388H580.737v11.019H427.224c-37.96,0-68.732,35.219-68.732,78.663V502.258H339.236a3.465,3.465,0,0,1-3.209-3.673V366.05c0-43.444,30.772-78.663,68.732-78.662Z" transform="translate(-316.025 -208.047)" fill="#f2f2f2"/><path d="M460.527,682.13V514.75h42.845V682.13a4.007,4.007,0,0,1-3.708,4.243H464.235A4.007,4.007,0,0,1,460.527,682.13Z" transform="translate(-337.944 -221.01)" fill="#3f3d56"/><path d="M325.027,498.08V361.974c.044-45.114,31.988-81.673,71.407-81.724H577.976V502.795H329.147c-2.274,0-4.117-2.112-4.12-4.715Zm251.3-215.944H396.434c-38.509.05-69.715,35.766-69.759,79.838V498.08a2.671,2.671,0,0,0,2.472,2.829H576.329Z" transform="translate(-314.088 -207.64)" fill="#3f3d56"/><path d="M498.125,398.448c-8.187-.011-14.822-7.6-14.831-16.974V259.829A2.671,2.671,0,0,0,480.823,257H423.147c-2.274,0-4.117-2.112-4.12-4.715v-44.32c0-2.6,1.846-4.712,4.12-4.715h85.69c2.274,0,4.117,2.112,4.12,4.715V381.474c-.009,9.37-6.644,16.963-14.831,16.974Z" transform="translate(-330.638 -203.25)"/><path d="M629.992,278.25h0c25.884-.062,46.91,23.9,46.965,53.525V486.717h92.281c7.72-.018,13.991,7.129,14.007,15.964H583.027V331.775C583.081,302.152,604.108,278.188,629.992,278.25Z" transform="translate(-359.512 -207.526)" fill="#3f3d56"/><path d="M626.331,364.509l9.725,45.976,190.232-52.7L816.563,311.8a3.3,3.3,0,0,0-1.943-2.447,2.621,2.621,0,0,0-1.1-.189L703.559,244.005a2.8,2.8,0,0,0-3.836,1.055l-53,84.58-19.979,31.894a.54.54,0,0,0-.073.394,3.865,3.865,0,0,0-.344,2.579Z" transform="translate(-367.121 -205.552)" fill="#fff"/><path d="M626.764,361.929a.472.472,0,0,0,.167.3.414.414,0,0,0,.357.081.446.446,0,0,0,.246-.2L627.6,362l1.04-1.665L647.536,330.2l52.98-84.561a2,2,0,0,1,2.737-.751l109.11,64.657.979.582a.98.98,0,0,0,.121.049,1.171,1.171,0,0,1,.224-.025.444.444,0,0,0,.239-.231.559.559,0,0,0,.031-.377.484.484,0,0,0-.211-.291l-.135-.082L703.648,244.005a2.8,2.8,0,0,0-3.836,1.055l-53,84.58-19.979,31.894A.54.54,0,0,0,626.764,361.929Z" transform="translate(-367.21 -205.552)" fill="#3f3d56"/><path d="M695.41,365.513l4.234.538,31.427,3.984,20.834,2.64,1.231.157,26-23.24,1-.89,6.14-5.488,21.845-19.526.131-1.371,7.77-80.261a4.105,4.105,0,0,0-3.237-4.631l-103.7-13.147a3.824,3.824,0,0,0-4.047,3.705L699.555,284.6l-3.04,31.388L693.8,344.065l-1.26,13.041-.368,3.777a4.107,4.107,0,0,0,3.242,4.63Z" transform="translate(-378.723 -204.447)" fill="#e6e6e6"/><path d="M729.667,298.7l44.918,5.694,15.93,2.019c2.958.375,5.621-2.065,5.949-5.451s-1.8-6.433-4.762-6.808l-19.813-2.511-41.032-5.207c-2.959-.376-5.624,2.065-5.953,5.452S726.708,298.328,729.667,298.7Z" transform="translate(-384.485 -207.991)" fill="#fff"/><path d="M726.638,322.824c.116.024.232.047.35.06l52.143,6.611,8.706,1.106c2.959.375,5.623-2.067,5.95-5.453s-1.806-6.435-4.765-6.81l-12.588-1.594-41.3-5.238-6.951-.882c-2.89-.369-5.514,1.953-5.93,5.246s1.527,6.371,4.39,6.953Z" transform="translate(-384.013 -209.37)" fill="#fff"/><path d="M720.26,344.382a5.382,5.382,0,0,0,4.021,2.947l21.372,2.709,38.064,4.826.008,0,1.217.155,6.14-5.488a6.975,6.975,0,0,0,0-1.254,5.843,5.843,0,0,0-4.768-5.492l-5.287-.672-20.975-2.656-15.092-1.916-19.495-2.473a5.183,5.183,0,0,0-5.132,2.807,6.932,6.932,0,0,0-.074,6.509Z" transform="translate(-383.537 -210.763)" fill="#fff"/><path d="M755.834,269.226l11.176,1.417,4.936.627,7.457.944c2.959.375,5.623-2.067,5.95-5.454s-1.806-6.435-4.765-6.81l-23.564-2.985c-2.958-.376-5.623,2.063-5.951,5.449S752.876,268.85,755.834,269.226Z" transform="translate(-389.092 -206.31)" fill="#fff"/><path d="M645.922,304.17l13.626,64.419,22.742,4.949,21.037,4.584,22.571,4.915,7.212,1.571a2.744,2.744,0,0,0,2.422-.671l5.786-5.172,3.663-3.274,26-23.24L754.447,274.1a4.325,4.325,0,0,0-1.025-2.036,3.356,3.356,0,0,0-3.4-1.054l-101.4,28.094A4.261,4.261,0,0,0,645.922,304.17Z" transform="translate(-370.567 -207.107)"/><path d="M683.832,359.071c.7,3.309,3.613,5.342,6.506,4.543l59.5-16.485c2.89-.806,4.665-4.136,3.97-7.446a2.2,2.2,0,0,0-.058-.233c-.79-3.185-3.636-5.088-6.448-4.311l-59.5,16.485c-2.891.8-4.667,4.135-3.97,7.446Z" transform="translate(-377.233 -210.76)" fill="#fff"/><path d="M690.082,378.539l21.037,4.584,44.562-12.346c2.893-.8,4.67-4.135,3.97-7.446s-3.613-5.345-6.506-4.543l-59.5,16.485a5.377,5.377,0,0,0-3.088,2.368,6.439,6.439,0,0,0-.475.9Z" transform="translate(-378.36 -212.108)" fill="#fff"/><path d="M743.008,389.559l7.212,1.571a2.744,2.744,0,0,0,2.422-.671l5.786-5.172Z" transform="translate(-387.678 -213.629)" fill="#fff"/><path d="M698.382,323.05c.7,3.309,3.613,5.342,6.506,4.543l23.046-6.385c2.89-.806,4.666-4.136,3.97-7.446a6.5,6.5,0,0,0-.993-2.344,5.038,5.038,0,0,0-5.513-2.2L702.352,315.6c-2.892.8-4.67,4.135-3.97,7.446Z" transform="translate(-379.794 -209.282)" fill="#fff"/><path d="M699.878,380.529l22.574,4.916,7.21,1.571a2.756,2.756,0,0,0,2.421-.671l5.79-5.173-2.032.563-4.289,3.829a1.969,1.969,0,0,1-1.729.479l-5.339-1.162-22.574-4.916Zm67.429-26.912.22,1.039,1-.891Zm-67.429,26.912,22.574,4.916,7.21,1.571a2.756,2.756,0,0,0,2.421-.671l5.79-5.173-2.032.563-4.289,3.829a1.969,1.969,0,0,1-1.729.479l-5.339-1.162-22.574-4.916Zm0,0,22.574,4.916,7.21,1.571a2.756,2.756,0,0,0,2.421-.671l5.79-5.173-2.032.563-4.289,3.829a1.969,1.969,0,0,1-1.729.479l-5.339-1.162-22.574-4.916Zm-73.547-12.058L651.8,488.9a3.025,3.025,0,0,0,3.643,2.545l184.365-51.08a3.51,3.51,0,0,0,2.223-4.17L816.563,315.766a3.3,3.3,0,0,0-1.943-2.447,2.621,2.621,0,0,0-1.1-.189,2.965,2.965,0,0,0-1.748.731l-15.131,13.522-21.975,19.646-7.362,6.581,0,.007-.006,0-27,24.12-4.463,4-4.289,3.829a1.969,1.969,0,0,1-1.729.479l-5.339-1.162-22.574-4.916-22.594-4.918L629.829,364.27a2.594,2.594,0,0,0-1.275.032,2.963,2.963,0,0,0-1.473.977,3.755,3.755,0,0,0-.75,3.193Zm73.547,12.058,22.574,4.916,7.21,1.571a2.755,2.755,0,0,0,2.421-.671l5.79-5.173-2.032.563-4.289,3.829a1.969,1.969,0,0,1-1.729.479l-5.339-1.162-22.574-4.916Zm0,0,22.574,4.916,7.21,1.571a2.755,2.755,0,0,0,2.421-.671l5.79-5.173-2.032.563-4.289,3.829a1.969,1.969,0,0,1-1.729.479l-5.339-1.162-22.574-4.916Zm0,0,22.574,4.916,7.21,1.571a2.755,2.755,0,0,0,2.421-.671l5.79-5.173-2.032.563-4.289,3.829a1.969,1.969,0,0,1-1.729.479l-5.339-1.162-22.574-4.916Z" transform="translate(-367.121 -209.515)" fill="#fff"/><path d="M699.878,380.529l22.574,4.916,7.21,1.571a2.756,2.756,0,0,0,2.421-.671l5.79-5.173-2.032.563-4.289,3.829a1.969,1.969,0,0,1-1.729.479l-5.339-1.162-22.574-4.916Zm67.429-26.912.22,1.039,1-.891Zm-67.429,26.912,22.574,4.916,7.21,1.571a2.756,2.756,0,0,0,2.421-.671l5.79-5.173-2.032.563-4.289,3.829a1.969,1.969,0,0,1-1.729.479l-5.339-1.162-22.574-4.916Zm0,0,22.574,4.916,7.21,1.571a2.756,2.756,0,0,0,2.421-.671l5.79-5.173-2.032.563-4.289,3.829a1.969,1.969,0,0,1-1.729.479l-5.339-1.162-22.574-4.916Zm-72.364-14.563.112.1c.019-.035.051-.067.076-.1a2.013,2.013,0,0,1,1.965-.724l49.177,10.707,21.034,4.587,22.574,4.916,7.21,1.571a2.756,2.756,0,0,0,2.421-.671l5.79-5.173-2.032.563-4.289,3.829a1.969,1.969,0,0,1-1.729.479l-5.339-1.162-22.574-4.916-22.594-4.918L629.829,364.27a2.594,2.594,0,0,0-1.275.032Zm-1.183,2.505L651.8,488.9a3.025,3.025,0,0,0,3.643,2.545l184.365-51.08a3.51,3.51,0,0,0,2.223-4.17L816.563,315.766a3.3,3.3,0,0,0-1.943-2.447,2.621,2.621,0,0,0-1.1-.189,2.965,2.965,0,0,0-1.748.731l-15.131,13.522-21.975,19.646-7.362,6.581,0,.007-.006,0-27,24.12-4.463,4-4.289,3.829a1.969,1.969,0,0,1-1.729.479l-5.339-1.162-22.574-4.916-22.594-4.918L629.829,364.27a2.594,2.594,0,0,0-1.275.032,2.963,2.963,0,0,0-1.473.977,3.755,3.755,0,0,0-.75,3.193Zm.84-.233a2.731,2.731,0,0,1,.38-2.066.32.32,0,0,1,.075-.111c.019-.035.051-.067.076-.1a2.013,2.013,0,0,1,1.965-.724l49.177,10.707,21.034,4.587,22.574,4.916,7.21,1.571a2.756,2.756,0,0,0,2.421-.671l5.79-5.173,3.662-3.274,25.993-23.243,1-.891,6.136-5.486,21.849-19.529,15.8-14.118a2.046,2.046,0,0,1,.813-.45,1.456,1.456,0,0,1,.251-.047,1.165,1.165,0,0,1,.224-.025,1.955,1.955,0,0,1,.742.139A2.382,2.382,0,0,1,815.729,316L841.2,436.426a2.779,2.779,0,0,1-.255,1.87,2.2,2.2,0,0,1-1.337,1.115L655.246,490.49a2.161,2.161,0,0,1-2.6-1.823Zm72.707,12.291,22.574,4.916,7.21,1.571a2.755,2.755,0,0,0,2.421-.671l5.79-5.173-2.032.563-4.289,3.829a1.969,1.969,0,0,1-1.729.479l-5.339-1.162-22.574-4.916Zm0,0,22.574,4.916,7.21,1.571a2.755,2.755,0,0,0,2.421-.671l5.79-5.173-2.032.563-4.289,3.829a1.969,1.969,0,0,1-1.729.479l-5.339-1.162-22.574-4.916Zm0,0,22.574,4.916,7.21,1.571a2.755,2.755,0,0,0,2.421-.671l5.79-5.173-2.032.563-4.289,3.829a1.969,1.969,0,0,1-1.729.479l-5.339-1.162-22.574-4.916Z" transform="translate(-367.121 -209.515)" fill="#3f3d56"/><path d="M827.089,422.006c-.865-4.109,1.34-8.243,4.928-9.242l23.269-6.447c3.591-.995,7.206,1.53,8.076,5.64s-1.337,8.248-4.928,9.242l-23.269,6.447C831.575,428.635,827.962,426.112,827.089,422.006Z" transform="translate(-402.448 -214.815)"/><ellipse cx="5.768" cy="6.601" rx="5.768" ry="6.601" transform="translate(161.72 171.623)" fill="#fff"/></svg>