<svg xmlns="http://www.w3.org/2000/svg" width="475" height="405.74" viewBox="0 0 475 405.74"><path d="M737,314.862a177.147,177.147,0,0,1-19.126,79.885l-.787,1.548c-44.074,85.644-150.912,134.516-258.8,118.386q-2.139-.324-4.272-.672a266.536,266.536,0,0,1-42.961-10.821q-3.383-1.162-6.717-2.407c-1.518-.564-3.036-1.146-4.539-1.747C315.813,465.787,262.049,393.93,262,314.862,262,202.826,368.334,112,499.5,112S737,202.826,737,314.862Z" transform="translate(-262 -112)"/><path d="M498.694,601.182q-2.139-.323-4.272-.672c-.927-22.993-4.111-70.186-14.967-119.611-5.937-27.051-14.18-54.779-25.612-79.566a232.136,232.136,0,0,0-13.4-25.112c-11.552-18.636-25.563-34.325-42.553-44.954l2.5-2.917q21.2,13.27,38.1,37.26,5.07,7.184,9.739,15.329,5.007,8.715,9.549,18.5,2.9,6.23,5.6,12.892,11.763,28.926,20,66.008,1.824,8.193,3.471,16.787A730.677,730.677,0,0,1,498.694,601.182Z" transform="translate(-302.405 -198.5)" opacity="0.2"/><path d="M445.835,693.772c-1.518-.564-3.035-1.146-4.539-1.746-1.468-13.624-4.167-30.525-9.1-46.568a138.015,138.015,0,0,0-8.3-21.126c-5.628-11.254-12.915-20.82-22.338-26.721l2.5-2.911c9.865,6.17,17.475,15.923,23.357,27.333,6.626,12.856,11.046,27.818,13.99,42.115A289.729,289.729,0,0,1,445.835,693.772Z" transform="translate(-303.496 -304.991)" opacity="0.2"/><ellipse cx="21.142" cy="18.059" rx="21.142" ry="18.059" transform="translate(50.713 96.566)" opacity="0.2"/><ellipse cx="21.142" cy="18.059" rx="21.142" ry="18.059" transform="translate(57.522 252.019)" opacity="0.2"/><path d="M483.221,328.826c-4.483,21.605,5.414,41.168,5.414,41.168s17.166-15.466,21.649-37.071-5.414-41.168-5.414-41.168S487.7,307.222,483.221,328.826Z" transform="translate(-327.431 -183.869)" opacity="0.2"/><path d="M367.215,421.574c24.126,7.535,48.368,2.7,48.368,2.7a93.547,93.547,0,0,0-39-24.588c-24.126-7.535-48.369-2.7-48.369-2.7A93.55,93.55,0,0,0,367.215,421.574Z" transform="translate(-281.688 -225.331)" opacity="0.2"/><path d="M366.338,656.08c16.91,5.281,33.927,1.835,33.927,1.835a65.187,65.187,0,0,0-27.311-17.29c-16.91-5.282-33.926-1.836-33.926-1.836A65.192,65.192,0,0,0,366.338,656.08Z" transform="translate(-284.903 -322.177)" opacity="0.2"/><ellipse cx="92.59" cy="79.086" rx="92.59" ry="79.086" transform="translate(144.422 89.613)" fill="#d0cde1"/><path d="M547.833,477.5s11.573,46.957,11.573,51.9,54.976,27.186,54.976,27.186l49.189-7.414,17.36-44.486S652,467.616,652,452.787Z" transform="translate(-346.989 -248.252)" fill="#d0cde1"/><path d="M755.112,556.784l-.787,1.548c-44.074,85.644-150.911,134.516-258.8,118.387q-2.14-.324-4.272-.672a266.572,266.572,0,0,1-42.961-10.822q-3.383-1.162-6.717-2.407c-1.518-.564-3.036-1.146-4.54-1.745A249.432,249.432,0,0,1,398.215,641.7L387.24,614.5l6.169-4.021,12.69-8.276,13.54-8.829,3.52-2.3,53.128-34.643,3.921-2.557,27.615-18.006.007-.005s29.863,41.563,73.267,29.2,42.455-47.793,42.455-47.793Z" transform="translate(-299.239 -274.037)" fill="#2f2e41"/><path d="M475.821,257.785s29.4-54.4,85.741-41.849,88.191,31.387,90.641,50.219-1.225,47.081-1.225,47.081-6.125-38.711-45.32-30.341-100.44,2.092-100.44,2.092l-9.8,75.329s-11.024-13.6-23.272-5.231S436.625,274.525,475.821,257.785Z" transform="translate(-319.102 -152.803)" fill="#2f2e41"/><path d="M443.323,729.991q-3.384-1.161-6.717-2.407c-1.518-.564-3.036-1.146-4.539-1.746a244.234,244.234,0,0,1-61.547-35.231,76.747,76.747,0,0,1,11.749-11.337h43.4l6.507,18.69Z" transform="translate(-294.267 -338.804)" fill="#2f2e41"/><path d="M855.549,576.32l37.234,5.618A202.128,202.128,0,0,1,852.9,635.1Z" transform="translate(-437.697 -297.642)" fill="#2f2e41"/></svg>