<svg xmlns="http://www.w3.org/2000/svg" width="475" height="496.98" viewBox="0 0 475 496.98"><path d="M747.882,731.936c0,18.71-106.331,33.879-237.5,33.879s-237.5-15.169-237.5-33.879c0-13.246,53.3-24.721,130.977-30.287,32.032-2.3,68.224-3.592,106.523-3.592,15.744,0,31.128.219,46.006.634C665.538,701.751,747.882,715.47,747.882,731.936Z" transform="translate(-272.882 -268.836)" fill="#3f3d56"/><ellipse cx="91.169" cy="10.565" rx="91.169" ry="10.565" transform="translate(115.685 448.893)" opacity="0.1"/><ellipse cx="86.19" cy="87.431" rx="86.19" ry="87.431" transform="translate(120.282 292.247)" fill="#3f3d56"/><rect width="53.629" height="46.63" transform="translate(180.04 431.407)"/><path d="M395.565,607.614,392.5,623.643l19.919,2.914,13.024-7.286-.766-11.657Z" transform="translate(-91.794 -164.914)" fill="#575a89"/><path d="M536.518,303.4s-1.532,16.758-5.363,17.486,8.427,29.872,8.427,29.872H557.97l14.557-3.643-6.9-16.029s-9.194-11.657-2.3-21.129S536.518,303.4,536.518,303.4Z" transform="translate(-333.111 -161.606)" fill="#a0616a"/><path d="M536.518,303.4s-1.532,16.758-5.363,17.486,8.427,29.872,8.427,29.872H557.97l14.557-3.643-6.9-16.029s-9.194-11.657-2.3-21.129S536.518,303.4,536.518,303.4Z" transform="translate(-333.111 -161.606)" opacity="0.1"/><path d="M485.3,478.471s-19.919,36.429-3.831,43.715,19.919,6.557,19.919,8.743-3.065,1.457-1.532,5.1-3.065,18.215,1.532,26.958,3.065,15.3,3.065,15.3,0,.729,1.532,3.643,2.3,5.1,1.532,6.557-5.363,10.929-.766,13.115,28.347,3.643,30.645,0-2.3-5.829,0-8.014,3.831-2.914,2.3-4.371-3.065-19.672-3.065-19.672,3.831-21.129,2.3-24.043-3.831-5.829-2.3-8.014,3.065-1.457,3.831-4.372,2.3-9.472,2.3-9.472l8.427-.729,19.919,3.643s22.218,23.315,46.734,30.6c0,0,6.9,6.557,9.194,6.557s2.3,0,1.532,1.457-3.065,1.457-1.532,2.914,3.831-.729,2.3,1.457-3.065,2.186-1.532,3.643-.766,9.472-.766,10.2-6.9,69.216-4.6,70.673,34.476,5.829,36.774,0-1.532-13.115-1.532-13.115,11.492-87.43,8.427-93.259-13.79-32.058-71.25-48.815c0,0-16.089-2.914-16.089-5.1s-1.532-16.029-4.6-16.758-20.685-1.457-20.685-1.457l-22.218,6.557-30.645-5.1Z" transform="translate(-320.195 -208.446)" fill="#2f2e41"/><path d="M521.858,646.743l-3.831,13.115s-3.065,21.129.766,26.229c3.009,4.006,8.381,8.911,18.345,9.772a12.327,12.327,0,0,0,12.855-8.1,3.5,3.5,0,0,0,.212-.943c0-1.457-2.3-18.943-2.3-18.943l-3.831-18.215-.766-5.1Z" transform="translate(-329.943 -254.315)" fill="#2f2e41"/><path d="M667.5,731.045s-3.831-3.643-4.6,0-3.831,18.943,1.532,19.672,56.694,8.014,62.056,5.1,15.323-7.286,9.194-9.472-23.75-8.743-23.75-8.743-9.96-12.386-11.492-13.115-9.96.729-13.79,3.643S667.5,731.045,667.5,731.045Z" transform="translate(-363.73 -275.959)" fill="#2f2e41"/><ellipse cx="23.75" cy="22.586" rx="23.75" ry="22.586" transform="translate(198.044 111.921)" fill="#a0616a"/><path d="M541.3,352.729l-9.193-9.472-10.191-18.943s-7.43-2.186-8.963,1.457-29.113,15.3-29.113,15.3,6.9,61.2,3.831,67.03-8.427,29.144-3.831,31.329,26.048,0,32.943,2.914,26.815,2.914,32.177-.729,6.9-6.557,12.258-4.371c4.566,1.861,15.239-61.756,18.312-80.714a8.452,8.452,0,0,0-3.76-8.386c-6.874-4.586-19.255-12.488-21.447-11.446C551.255,338.158,541.3,352.729,541.3,352.729Z" transform="translate(-321.8 -167.221)" fill="#575a89"/><path d="M598.752,359.557h0a8.8,8.8,0,0,1,6.827,7.429l6.2,53.044s-15.323,31.329-22.984,10.2S598.752,359.557,598.752,359.557Z" transform="translate(-346.313 -176.963)" fill="#575a89"/><path d="M596.623,447.928l16.855-4.372s3.065,20.4,6.129,20.4-10.726,11.657-17.621,10.2-16.855-6.557-17.621-10.2,6.9-18.943,6.9-18.943Z" transform="translate(-345.716 -199.761)" fill="#575a89"/><path d="M534.242,288.87c1.615-3.386,1.335-7.337,2.67-10.832a13.31,13.31,0,0,1,8.733-7.923,14.162,14.162,0,0,1,11.917,1.817c1.717,1.165,3.439,2.8,5.536,2.579,2.258-.239,4.271-2.635,6.347-1.757,2.3.973,1.679,4.894,4.01,5.8a3.012,3.012,0,0,0,3.384-1.323,7.864,7.864,0,0,0,.985-3.626c.322-3.107.612-6.4-.8-9.213a21.653,21.653,0,0,1-1.554-2.98,9.709,9.709,0,0,1-.3-2.939c-.013-3.652-.293-7.462-2.226-10.619-2.145-3.5-6.11-5.742-10.246-6.719a41.067,41.067,0,0,0-12.716-.485c-7.02.565-14.341,1.777-19.872,5.927a7.565,7.565,0,0,0-1.91,1.909,9.534,9.534,0,0,0-1.018,2.8,56.176,56.176,0,0,1-5.338,13.317,28.25,28.25,0,0,0-2.755,5.658,7.01,7.01,0,0,0,.681,6.019c1,1.4,2.6,2.153,3.853,3.3s1.826,3.326,3.2,4.187c1.2.752,2.644.221,3.871,1.018C532.273,285.806,532.386,288.05,534.242,288.87Z" transform="translate(-330.376 -144.619)" fill="#2f2e41"/><path d="M564.382,376.928l2.3-4.372s33.71,9.472,40.6,18.215c0,0,16.855-10.2,26.048-8.743l9.194,1.457L614.18,407.529l-36.008-2.914Z" transform="translate(-341.055 -180.491)" fill="#f2f2f2"/><path d="M552.793,372.557l-31.411,41.53,45.2,21.129s4.226,2.186,7.476,0L604.124,422.1l28.347-38.615-28.347,13.843s-3.065-5.829-9.194-2.914Z" transform="translate(-330.999 -180.491)"/><path d="M624.212,458.14l6.129-15.3s13.79-16.757,6.129-24.772-16.089,23.315-16.089,23.315Z" transform="translate(-354.152 -192.487)" fill="#a0616a"/><path d="M533.079,458.436l13.374-10.311s20.77-7.916,18.371-18.5-26.217,12.492-26.217,12.492Z" transform="translate(-333.734 -195.225)" fill="#a0616a"/><path d="M484.291,367.269h-.766S471.65,353.79,469.352,372s-9.96,78.688,9.96,80.873A50.064,50.064,0,0,0,513.4,443.77s14.556-21.129,9.193-21.129c-2.595,0-9.652-1.108-16.089-.729-6.867.405-13.037,2.245-12.641.364C494.634,418.634,505.743,372.369,484.291,367.269Z" transform="translate(-318.041 -177.753)" opacity="0.1"/><path d="M481.973,349.014l-3.065-1.457s-12.258,2.186-14.556,20.4-9.96,78.688,9.96,80.873,46.734-2.914,46.734-2.914,5.363-27.686,0-27.686-32.943,3.643-32.177,0S503.424,354.114,481.973,349.014Z" transform="translate(-316.872 -173.706)" fill="#575a89"/><path d="M338,348.527l8.448-12.314,5.342,20.328L338,362.37Z" transform="translate(-79.048 -91.252)" fill="#575a89"/><ellipse cx="20.685" cy="19.672" rx="20.685" ry="19.672" transform="translate(64.717 42.341)" fill="#f2f2f2"/><rect width="49.032" height="46.63" transform="translate(60.887 208.459)" fill="#f2f2f2"/><path d="M364.423,0l12.411,20.442,12.41,20.442H339.6l12.41-20.442Z" transform="translate(-79.423)" fill="#f2f2f2"/></svg>