<svg xmlns="http://www.w3.org/2000/svg" xmlns:xlink="http://www.w3.org/1999/xlink" width="475" height="291.115" viewBox="0 0 475 291.115"><defs><linearGradient id="a" x1="0.5" y1="1" x2="0.5" y2="-0.001" gradientUnits="objectBoundingBox"><stop offset="0" stop-color="gray" stop-opacity="0.251"/><stop offset="0.54" stop-color="gray" stop-opacity="0.122"/><stop offset="1" stop-color="gray" stop-opacity="0.102"/></linearGradient></defs><g transform="translate(-0.011 -0.035)"><path d="M517.945,403.138q-.794,1.97-1.583,3.888-1.232,2.979-2.431,5.842c-.356.846-.712,1.676-1.058,2.506-3.923,9.23-7.586,17.394-10.7,24.108-5.75,12.391-16.909,20.185-29.108,20.331l-69.178.867h-.73l-5.93.074-5.073.063-15.555.194h-.629l-7.919.1h-.242l-48.81.609-43.569.525-5.068.063-31.476.394h-.037l-20.414.252h-.219l-64.548.8L134.36,464a35.292,35.292,0,0,1-12.166-2.007,39.188,39.188,0,0,1-17.832-13,109.555,109.555,0,0,1-18.4-36.123q-.88-2.884-1.642-5.842C70.268,352.311,87.4,281.72,118.239,234.481q1.939-2.963,3.941-5.779l.032-.042c9.484-13.407,20.117-24.607,31.444-32.571,20.072-14.137,42.31-18.119,64.183-6.252,18.507,10.045,35.787,14.767,52.537,16.049,1.692.126,3.385.221,5.068.278,38.423,1.392,74.433-14.552,116.72-24.844,1.683-.41,3.371-.814,5.073-1.2,30.167-6.914,63.631-10.559,103.428-2.895a76.917,76.917,0,0,1,12.207,3.362q2.632.977,5.073,2.1c18.995,8.9,29.355,25.343,33.757,45.947q.625,2.868,1.081,5.837C560.588,284.037,537.729,354.338,517.945,403.138Z" transform="translate(-79.34 -172.91)" opacity="0.1"/><g transform="translate(4.983 7.198)" opacity="0.1"><path d="M204.716,217V484.726l-19.31.242a35.294,35.294,0,0,1-12.166-2.007V249.571h.032C182.756,236.149,193.389,224.948,204.716,217Z" transform="translate(-135.382 -201.019)"/><path d="M599.166,284.821H164.6q1.939-2.963,3.941-5.779V279H598.085Q598.71,281.853,599.166,284.821Z" transform="translate(-130.684 -230.448)"/><path d="M1034.773,189.592V413.914h-1.583q-1.232,2.979-2.431,5.842c-.356.846-.711,1.676-1.058,2.506V187.47Q1032.332,188.447,1034.773,189.592Z" transform="translate(-601.15 -187.002)"/><path d="M770.163,186.58V467.245l-5.073.063V187.778C766.773,187.368,768.461,186.964,770.163,186.58Z" transform="translate(-457.248 -186.58)"/><path d="M503.178,235.9V492.046l-5.068.063V235.62C499.8,235.746,501.495,235.82,503.178,235.9Z" transform="translate(-312.056 -209.857)"/><path d="M522.289,618.52q-1.232,2.979-2.431,5.842H91.892q-.88-2.884-1.642-5.842Z" transform="translate(-90.25 -391.603)"/></g><rect width="8.667" height="30.291" transform="translate(96.532 139.669)" fill="#3f3d56"/><rect width="8.667" height="32.046" transform="translate(329.785 138.093)" fill="#3f3d56"/><path d="M451.421,520.122v6.83l-69.3.735-.739.016-26.339.278-.629.011-8.006.079h-.237l-48.8.52-80.108.856h-.068l-20.368.221-.219.005-90.5.956v-7.88l21.28-14.71,42.7-.41.912-.005.3-.005.912-.016,20.5-.194.917-.005.292-.005.912-.005,6.573-.063.173-.005,16.217-.158h.132l126.542-1.229,3.1-.026h.31l2.363-.026,17.175-.163.912-.016.844-.01h.438l5.342-.047,1.058-.016,1.419-.011,4.448-.047,7.057-.068.912-.01,1.587-.011h.3l34.081-.336Z" transform="translate(-57.694 -239.756)" fill="#65617d"/><path d="M451.421,520.122v6.83l-69.3.735-.739.016-26.339.278-.629.011-8.006.079h-.237l-48.8.52-80.108.856h-.068l-20.368.221-.219.005-90.5.956v-7.88l21.28-14.71,42.7-.41.912-.005.3-.005.912-.016,20.5-.194.917-.005.292-.005.912-.005,6.573-.063.173-.005,16.217-.158h.132l126.542-1.229,3.1-.026h.31l2.363-.026,17.175-.163.912-.016.844-.01h.438l5.342-.047,1.058-.016,1.419-.011,4.448-.047,7.057-.068.912-.01,1.587-.011h.3l34.081-.336Z" transform="translate(-57.694 -239.756)" opacity="0.2"/><path d="M349.788,656.57v12.866a3.289,3.289,0,0,1-1.6,2.91,2.447,2.447,0,0,1-1.14.315l-15.92.389a2.437,2.437,0,0,1-1.232-.3,3.276,3.276,0,0,1-1.629-2.926V656.57Z" transform="translate(-214.71 -402.466)" fill="#3f3d56"/><path d="M349.788,656.57v12.866a3.289,3.289,0,0,1-1.6,2.91,2.447,2.447,0,0,1-1.14.315l-15.92.389a2.437,2.437,0,0,1-1.232-.3,3.276,3.276,0,0,1-1.629-2.926V656.57Z" transform="translate(-214.71 -402.466)" opacity="0.1"/><path d="M351.788,656.57v12.866a3.289,3.289,0,0,1-1.6,2.91,2.447,2.447,0,0,1-1.14.315l-15.92.389a2.437,2.437,0,0,1-1.232-.3,3.276,3.276,0,0,1-1.629-2.926V656.57Z" transform="translate(-215.797 -402.466)" fill="#3f3d56"/><rect width="21.518" height="16.548" transform="translate(310.626 254.105)" fill="#3f3d56"/><rect width="21.518" height="16.548" transform="translate(310.626 254.105)" opacity="0.1"/><rect width="21.518" height="16.548" transform="translate(309.714 254.105)" fill="#3f3d56"/><path d="M220.267,265.82v3.01l-8.667-.257V265.82Z" transform="translate(-115.068 -126.156)" opacity="0.1"/><path d="M316.626,269.094,306.211,355.25a2.067,2.067,0,0,1-1.993,1.949l-83.388-2.49-1.583-.047a1.873,1.873,0,0,1-1.445-.791,2.5,2.5,0,0,1-.453-1.767l11.692-90.191a2.046,2.046,0,0,1,2.071-1.907L314.8,266.53a1.886,1.886,0,0,1,1.4.821,2.5,2.5,0,0,1,.424,1.742Z" transform="translate(-154.378 -214.231)" fill="#65617d"/><path d="M165.418,99.16l-8.818,79.5,76.637,2.8,9.424-76.7Z" transform="translate(-85.158 -47.05)"/><rect width="93.364" height="91.058" rx="5.33" transform="translate(175.449 50.88)" fill="#65617d"/><rect width="84.848" height="75.823" transform="translate(179.856 57.011)"/><path d="M731.6,262.82v1.991l-8.667.2v-2.2Z" transform="translate(-393.145 -124.732)" opacity="0.1"/><path d="M793.1,349.164a1.774,1.774,0,0,1-.365,1.2,1.333,1.333,0,0,1-1,.526l-85.4,2.033a1.493,1.493,0,0,1-1.428-1.466l-7.34-87.88a1.785,1.785,0,0,1,.337-1.214,1.344,1.344,0,0,1,1-.557l84.747-4.854.912-.053a1.482,1.482,0,0,1,1.469,1.471Z" transform="translate(-415.543 -212.758)" fill="#65617d"/><path d="M628.93,99.2l77.4-4.381,6.537,79.852-76.787,2.1Z" transform="translate(-342.025 -44.99)"/><path d="M895.732,349.164a1.773,1.773,0,0,1-.365,1.2,1.333,1.333,0,0,1-1,.526L886.28,256.95l.912-.053a1.482,1.482,0,0,1,1.469,1.471Z" transform="translate(-518.172 -212.758)" opacity="0.1"/><path d="M231.126,259.994,220.83,354.7l-1.583-.047a1.873,1.873,0,0,1-1.445-.791,2.5,2.5,0,0,1-.453-1.767l11.692-90.191A2.045,2.045,0,0,1,231.126,259.994Z" transform="translate(-154.378 -214.226)" opacity="0.1"/><rect width="8.667" height="8.973" transform="translate(96.532 160.987)" opacity="0.1"/><path d="M272.448,483.65v2.611l-21.518.662V483.65Z" transform="translate(-136.457 -229.551)" opacity="0.1"/><path d="M352.2,483.4v88.363a1.987,1.987,0,0,1-1.756,2.075l-87.425,2.679h-.023a1.978,1.978,0,0,1-1.8-2.075V483.4a1.978,1.978,0,0,1,1.8-2.075h87.4A1.978,1.978,0,0,1,352.2,483.4Z" transform="translate(-178.229 -319.282)" fill="#65617d"/><path d="M263.015,481.32v95.192h-.023a1.978,1.978,0,0,1-1.8-2.075V483.4a1.978,1.978,0,0,1,1.8-2.075Z" transform="translate(-178.229 -319.282)" opacity="0.1"/><path d="M194.6,319.15h80.97v77.882l-80.97,2.1Z" transform="translate(-105.823 -151.47)" fill="#d4dfec"/><rect width="8.667" height="9.151" transform="translate(329.785 160.987)" opacity="0.1"/><path d="M700.448,483.65v3.367l-21.518-.662V483.65Z" transform="translate(-369.216 -229.551)" opacity="0.1"/><path d="M759.174,483.4v91.042a1.974,1.974,0,0,1-1.825,2.075h0l-87.443-2.679a1.987,1.987,0,0,1-1.756-2.075V483.4a1.978,1.978,0,0,1,1.8-2.075h87.4A1.975,1.975,0,0,1,759.174,483.4Z" transform="translate(-399.546 -319.282)" fill="#65617d"/><path d="M865.515,483.4v91.042a1.974,1.974,0,0,1-1.825,2.075h0V481.32h0a1.974,1.974,0,0,1,1.825,2.075Z" transform="translate(-505.887 -319.282)" opacity="0.1"/><path d="M679.07,319.15H598.1v77.882l80.97,2.1Z" transform="translate(-325.258 -151.47)" fill="#d4dfec"/><path d="M554.7,483.4v88.363a1.987,1.987,0,0,1-1.756,2.075l-87.425,2.679h0a1.974,1.974,0,0,1-1.825-2.075V483.4a1.978,1.978,0,0,1,1.8-2.075h87.4A1.978,1.978,0,0,1,554.7,483.4Z" transform="translate(-288.355 -319.282)" fill="#65617d"/><path d="M397.1,319.15h80.97v77.882l-80.97,2.1Z" transform="translate(-215.949 -151.47)" fill="#d4dfec"/><path d="M451.421,533.65v6.829l-69.3.735-.739.016-26.339.278-.629.011-8.006.079h-.237l-48.8.52-80.108.856h-.068l-20.368.221-.219.005-90.5.956v-7.88l92.379-.7h.219l18.7-.147h.087l129.133-.982h.132l.078-.005h.214l2.185-.016h.666l33.98-.263,2.007-.01.447-.005Z" transform="translate(-57.694 -253.284)" opacity="0.1"/><ellipse cx="23.415" cy="26.966" rx="23.415" ry="26.966" transform="translate(198.864 116.028)" fill="#fbbebe"/><path d="M383.74,546.094a.732.732,0,0,1,.046-.184c.456-1.886,1.268-5.075,1.875-7.623.078-.315.151-.625.219-.919.671-2.874,1.975-9.6,2.7-13.8.255-1.476.456-2.627.5-3.2.091-.888,1.464-4.686,3.02-9.052,1.09-3.068,2.281-6.42,3.152-9.246a36,36,0,0,0,1.337-5.175,3.076,3.076,0,0,0,0-1.119,8.818,8.818,0,0,1-.219-1.839h0c-.1-3.257.739-8.405,2.044-10.565,1.6-2.627,2.737-12.43,2.737-12.43a2.312,2.312,0,0,0,2.737-1.854,3.7,3.7,0,0,0,.046-.735,4.477,4.477,0,0,0-.041-.583c-.406-3.278,6.715-6.766,10.72-7.518a7.822,7.822,0,0,1,1.368-.147,11.066,11.066,0,0,0,2.851-.756q.639-.226,1.368-.525c1.679-.651,3.686-1.513,5.816-2.459,8.01-3.578,17.708-8.406,17.708-8.406.068-.373.146-.73.233-1.082a14.135,14.135,0,0,1,7.458-9.945h0v-1.051c0-1.812-.068-3.677-.137-5.537,0-.362-.027-.725-.046-1.087v-.594c0-.368-.032-.735-.05-1.1l-.082-.074a8.277,8.277,0,0,1-1.779-2.206,8.616,8.616,0,0,1-.648-1.576,54.47,54.47,0,0,1-1.086-5.647l-.082-.389a48.489,48.489,0,0,0-1.825-5.558c-1.008-2.847-1.784-5.779-2.555-8.747q-.7-2.7-1.419-5.4l-.721-2.753c-.137-.525-.274-1.051-.379-1.576h0q-.076-.364-.119-.736h0a6.024,6.024,0,0,1,.11-2.422q.266-.805.6-1.576a4.551,4.551,0,0,0,.228-.725h0q.022-.083.036-.168a3.407,3.407,0,0,0,.05-.567,11.093,11.093,0,0,0-.237-2.044.042.042,0,0,1,0-.026q-.008-.072-.023-.142a15.352,15.352,0,0,1-.164-1.576,16.836,16.836,0,0,1,1.583-8.18l.087-.189a13.572,13.572,0,0,1,.839-1.46h0a7.262,7.262,0,0,1,.456-.641,1.5,1.5,0,0,1-2.281-.363,1.908,1.908,0,0,1-.251-.394,2.136,2.136,0,0,1-.105-.236c-.023-.063-.041-.131-.059-.2a4.74,4.74,0,0,1,.967-3.7,8.81,8.81,0,0,1,2.618-2.469h0a1.693,1.693,0,0,1,.183-.11,7.251,7.251,0,0,1,1.2-.557h0a6.166,6.166,0,0,1,.744-.231l-1.692-.179-.684-.074a6.948,6.948,0,0,1,5.93-5.732h.493a4.664,4.664,0,0,1,.716.068,2.389,2.389,0,0,1-1.209-2.275,6.03,6.03,0,0,0,4.192,1.608h.173q-.118-.853-.155-1.718h0a20.071,20.071,0,0,1,0-2.343,3.547,3.547,0,0,0,3.093,1.187l-.949-1.523a3.956,3.956,0,0,0,2.992,1.077l.219-.026a2.823,2.823,0,0,0,.543-.121h.041c-.087-.126-.164-.257-.242-.394l-.027-.063a5.447,5.447,0,0,1-.456-1.1,3.872,3.872,0,0,1-.109-.457h0a5.248,5.248,0,0,1,.205-2.863c1.473,1.418,3.088,3.357,5.018,1.891s1.993-4.155,5.018-3.882a4.762,4.762,0,0,1,3.836,3.215,2.811,2.811,0,0,1,3.5-.919,3.726,3.726,0,0,1,1.77,3.62,5.519,5.519,0,0,1,3.809-.173,2.7,2.7,0,0,1,1.3,3.5.768.768,0,0,1-.064.105c-.561.835-1.8,1.292-1.67,2.343l.192.158.593.494q3.49,2.9,6.8,6.094c1.131,1.093,2.336,2.406,2.413,4.113a5.205,5.205,0,0,1-.109,1.245h0c-.073.41-.173.82-.251,1.229a11.772,11.772,0,0,0-.155,3.178h0c.032.31.073.615.123.925.7,4.061,3.517,7.413,3.8,11.558v.294a10.755,10.755,0,0,1-.032,1.329,31.521,31.521,0,0,1-2.044,7.355c-.05.147-.1.294-.146.441a82.424,82.424,0,0,0-3.193,14.794q-.338,2.676-.912,5.3a15,15,0,0,1-2.322,5.479,7.869,7.869,0,0,1-1.533,1.576,8.206,8.206,0,0,1-1.209.741v.031c.05.32.091.641.141.961.027.168.05.336.078.525h0a.083.083,0,0,0,0,.032c.383,2.485.821,4.917,1.282,7.229l.233,1.151a9.93,9.93,0,0,1,6.468,9.162,5.832,5.832,0,0,1,0,.751s8.667.263,12.089,3.152a8.886,8.886,0,0,0,2.057,1.208,34.315,34.315,0,0,0,4.22,1.518c.734.221,1.5.436,2.281.646,1.368.362,2.819.714,4.22,1.051,3.736.867,7.253,1.576,9.037,2.1,4.256,1.24,13.991,11.988,13.991,11.988s1.14,10.843,2.281,12.424,3.193,7.139,3.193,7.139l7.545,15.45,3.193,6.5h2.053c.283,0,.839.462,1.464,1.1.543.557,1.145,1.25,1.674,1.881l.876,1.077.547.7s3.316.095,4.215,3.115c2.7-.089,6.017.116,8.339,1.313a6.221,6.221,0,0,1,.912.567,4.57,4.57,0,0,1,1.884,2.973,5.025,5.025,0,0,1,.082.756c0,.3,0,.6,0,.893-.164,3.977-2.413,7.286-4.48,9.514l.146.3s-.068.189-.2.525c-.036.1-.082.21-.132.336h0c-.269.662-.7,1.655-1.259,2.816a33.509,33.509,0,0,1-4.366,6.919l-.132.158-26.339.278-.078-.105-5.109-7.019-2.541-3.488-.078-.11-.073.835-.246,2.784-.593,6.73-.032.336v.089l-.068.778.05-.778h-.132l-48.81.525-80.113,1.019v.441h-.064v-.441l-20.414.252Z" transform="translate(-244.876 -255.993)" fill="url(#a)"/><path d="M568.648,497.845s-45.389,6.3-41.055,0c1.569-2.28,2-9.036,1.916-16.732-.027-2.338-.1-4.76-.205-7.171-.5-11.558-1.711-22.852-1.711-22.852s39.687-21.539,35.125-4.465c-1.825,6.9-1.227,16.585.16,25.679.406,2.653.876,5.253,1.368,7.723q1.8,9.034,4.4,17.82Z" transform="translate(-322.948 -299.689)" fill="#fbbebe"/><path d="M568.648,532.842s-45.389,6.3-41.055,0c1.569-2.28,2-9.036,1.916-16.732,6.92-3.4,15.724-.867,15.724-.867,9.269-2.128,15.213-1.713,19.013-.221Q566.049,524.056,568.648,532.842Z" transform="translate(-322.948 -334.687)" opacity="0.1"/><path d="M404.657,625.9v-.441l80.113-1,48.81-.525h.137l-.05.777.068-.777h.087v-.089l.625-7.066.237-2.674.073-.835.064-.7,2.819-10.827,2.819-10.812,2.372-9.1,3.622-13.911s-2.053-5.516-3.193-7.092-2.281-12.346-2.281-12.346-9.735-10.68-13.991-11.91c-1.784-.525-5.305-1.224-9.046-2.1-1.4-.326-2.837-.672-4.22-1.051-.78-.2-1.546-.42-2.281-.636a36.3,36.3,0,0,1-4.22-1.5,9.04,9.04,0,0,1-2.053-1.2c-3.353-2.832-11.756-3.152-12.079-3.152h0a.265.265,0,0,1,0-.037v-.047a6.2,6.2,0,0,0,0-.662,4.86,4.86,0,0,0-.041-.735.756.756,0,0,0-.032-.263c-.023-.189-.05-.389-.091-.6q-.021-.141-.055-.278a9.973,9.973,0,0,0-.57-1.833c-.032-.084-.073-.173-.109-.257a9.86,9.86,0,0,0-.775-1.382c-.059-.089-.123-.184-.192-.273a9.668,9.668,0,0,0-1.241-1.387c-.123-.11-.251-.226-.383-.331a2.173,2.173,0,0,0-.233-.189l-.406-.3-.379-.252c-.333-.21-.684-.415-1.067-.609-.119-.063-.246-.121-.374-.179s-.328-.147-.5-.221h-.027l-.342-.157c-.26-.1-.525-.189-.8-.278l-.424-.126-.456-.121-.456-.11c-.456-.105-.944-.2-1.455-.273l-.52-.073-.534-.063-.552-.053-.785-.053-.912-.037a49.713,49.713,0,0,0-11.975,1.467,28.78,28.78,0,0,0-8.324-.884h-.4l-.456.032h-.292l-.588.063a3.821,3.821,0,0,0-.593.079c-.2.031-.4.058-.6.095l-.3.058c-.3.058-.6.121-.912.194q-.151.031-.3.079c-.4.1-.794.221-1.186.357-.2.063-.392.137-.588.215a2.912,2.912,0,0,0-.292.116l-.292.121-.287.131-.342.158c-.173.084-.342.173-.511.268a3.066,3.066,0,0,0-.283.158c-.091.058-.187.105-.274.163a12.829,12.829,0,0,0-2.833,2.3l-.233.257-.228.268c-.078.089-.151.184-.224.278a12.362,12.362,0,0,0-.83,1.182c-.073.11-.141.221-.21.336a14.637,14.637,0,0,0-.785,1.534c-.059.126-.114.257-.169.384a18.855,18.855,0,0,0-.912,2.758q-.128.525-.233,1.051s-9.657,4.907-17.668,8.458c-2.13.946-4.137,1.8-5.816,2.448-.488.189-.944.362-1.369.525a10.854,10.854,0,0,1-2.851.756,7.818,7.818,0,0,0-1.368.147c-3.681.688-9.99,3.677-10.679,6.677a2.223,2.223,0,0,0-.046.736v.058c.456,3.677-2.737,3.152-2.737,3.152s-1.14,9.719-2.737,12.346c-1.154,1.891-1.943,6.11-2.044,9.293h0a11.824,11.824,0,0,0,.2,2.958v.073c.182.7-.255,2.627-1,5.091-.807,2.706-1.984,6.068-3.116,9.241-1.706,4.791-3.312,9.141-3.412,10.1-.041.426-.16,1.187-.324,2.17-.666,4-2.144,11.626-2.874,14.71-.543,2.3-1.332,5.453-1.875,7.618a.826.826,0,0,1-.046.184l20.45-.231v.441h.064Z" transform="translate(-245.11 -335.62)"/><path d="M445.44,607.57s26,15.5,35.353,13.659Z" transform="translate(-278.43 -379.207)" opacity="0.1"/><path d="M561.44,595.57s25.318,9.456,33.757,10.77S561.44,595.57,561.44,595.57Z" transform="translate(-341.514 -373.511)" opacity="0.1"/><path d="M564.7,528.215c-13.229,2.805-38.136,2.2-48.9,1.776,3.946-16.286,23.187-10.749,23.187-10.749C562.8,513.768,564.629,525.126,564.7,528.215Z" transform="translate(-316.694 -336.585)" opacity="0.1"/><path d="M564.7,526.215c-13.229,2.805-38.136,2.2-48.9,1.776,3.946-16.286,23.187-10.749,23.187-10.749C562.8,511.768,564.629,523.126,564.7,526.215Z" transform="translate(-316.694 -335.635)"/><path d="M776.94,671.9s15.583-2.758,15.888,5.122-7.946,13.386-7.946,13.386Z" transform="translate(-458.709 -409.519)" fill="#fbbebe"/><path d="M563.192,472.3a19.839,19.839,0,0,1-2.053.914c-4.918,1.954-9.876,3.924-15.054,4.639s-10.611.084-15.127-2.889a13.091,13.091,0,0,1-1.368-1.024c-.5-11.558-1.711-22.853-1.711-22.853s39.687-21.539,35.125-4.465C561.19,453.521,561.805,463.209,563.192,472.3Z" transform="translate(-323.263 -299.689)" opacity="0.1"/><path d="M528.266,358.676a3.888,3.888,0,0,1-3.8-.919l.949,1.518a3.558,3.558,0,0,1-3.093-1.182,20.588,20.588,0,0,0,.146,4.071,6.051,6.051,0,0,1-4.361-1.576,2.378,2.378,0,0,0,1.2,2.264c-3.262-.449-6.308,1.959-7.116,5.626l2.381.252a8.332,8.332,0,0,0-4.762,3.346,4.691,4.691,0,0,0-.967,3.677c.319,1.282,1.861,2.1,2.7,1.187a16.315,16.315,0,0,0-2.783,11.973,8.711,8.711,0,0,1,.21,2.763,25.616,25.616,0,0,1-.862,2.464,8.884,8.884,0,0,0,.383,4.728l2.139,8.1c.775,2.926,1.546,5.858,2.559,8.689a47.341,47.341,0,0,1,1.825,5.521c.575,2.543.6,5.327,1.825,7.549a9.642,9.642,0,0,0,3.275,3.325c4.511,2.973,9.963,3.6,15.127,2.889s10.118-2.685,15.031-4.639a13.272,13.272,0,0,0,3.12-1.576c3.4-2.564,4.156-7.807,4.79-12.424a79.381,79.381,0,0,1,3.325-15.13c.994-2.884,2.281-5.81,2.062-8.9-.278-4.1-3.1-7.428-3.8-11.463a11.464,11.464,0,0,1,.032-4.082,10.57,10.57,0,0,0,.36-2.469c-.078-1.692-1.282-2.994-2.413-4.082q-3.681-3.541-7.6-6.693c-.132-1.051,1.108-1.5,1.67-2.332.794-1.172-.027-3.031-1.232-3.578a5.519,5.519,0,0,0-3.809.173,3.58,3.58,0,0,0-1.766-3.6,2.748,2.748,0,0,0-3.5.919,4.755,4.755,0,0,0-3.841-3.194c-3.024-.273-3.084,2.39-5.018,3.856s-3.531-.468-5.018-1.875A5.481,5.481,0,0,0,528.266,358.676Z" transform="translate(-312.41 -257.83)" fill="#3f3d56"/><path d="M749.339,657.351s-.406,1.114-1.154,2.727A36.934,36.934,0,0,1,744.079,667l-.123.152h-.739l-26.339.278h-.63l-.078-.105-5.109-6.982-1.925-2.632-.078-.11-.164-.221-.091-.126-.119-.163-3.745-5.117,1.369-6.567,2.331-11.064.059-.268.456-2.1.324-1.576,1.086-5.138,3.722-17.678,6.615,3.94,6.975,14.184,3.745,7.617h2.053c.388,0,1.277.862,2.171,1.855.319.352.639.725.912,1.051.812.967,1.455,1.8,1.455,1.8s3.326.084,4.22,3.1a4.1,4.1,0,0,1,.114.447,23.223,23.223,0,0,0,1.154,3.446c.588,1.476,1.327,3.152,2.076,4.828,1.391,3.073,2.805,6,3.326,7.061l.064.131Z" transform="translate(-419.554 -379.212)"/><path d="M560.073,651.646l-.046.751v.052l-.078,1.208-.607,9.724-.734,11.715-.21,3.3-.456,7.061v.089l-48.81.525-80.1,1v.441h-.064v-.588l.205-7.544.392-14.741.338-12.5.032-1.245a5.91,5.91,0,0,1,1.607-3.962,4.418,4.418,0,0,1,3.6-1.381c2.153.21,4.949.468,8.293.741l1.369.116c19.31,1.544,55,3.541,91.006,1.051.757-.047,1.519-.1,2.281-.163,5.583-.4,11.162-.925,16.687-1.576a4.437,4.437,0,0,1,3.842,1.527,6.016,6.016,0,0,1,1.45,4.372Z" transform="translate(-269.473 -397.226)" opacity="0.1"/><path d="M429.08,689.424v-.441l80.113-1,48.81-.525h.137v-.089l.456-7.061.2-3.152.748-11.878.589-9.4v-.231a6.426,6.426,0,0,0-.05-1.3.19.19,0,0,0,0-.053,5.91,5.91,0,0,0-.912-2.437,4.545,4.545,0,0,0-4.3-2.1c-5.524.651-11.1,1.171-16.687,1.576-.762.063-1.524.116-2.281.163-36.01,2.464-71.7.468-91.006-1.051l-1.368-.115c-3.344-.273-6.14-.525-8.293-.741-2.453-.238-4.667,1.7-5.127,4.481a6.62,6.62,0,0,0-.082.862l-.31,11.642-.424,14.746-.2,7.544v.588Z" transform="translate(-269.533 -399.139)" fill="#3f3d56"/><path d="M560.286,660.809l-.561,8.054-.835,12-.21,3.005-.456,6.73-.027.336v.089h0l-.068.778.05-.778h-.132l-48.81.525-80.126,1V692.4l.224-7.544.456-14.741.292-9.8a3.461,3.461,0,0,1,1.4-2.758,2.558,2.558,0,0,1,1.724-.473c.958.089,2.135.194,3.508.31,2.231.189,4.981.41,8.184.641,5.93.431,13.37.893,21.9,1.271,23.721,1.051,55.744,1.4,86.162-1.665,1.369-.137,2.783-.289,4.165-.441a2.536,2.536,0,0,1,1.587.347,2.329,2.329,0,0,1,.392.284,3.177,3.177,0,0,1,.912,1.292,2.048,2.048,0,0,1,.114.32A3.765,3.765,0,0,1,560.286,660.809Z" transform="translate(-269.549 -402.707)" opacity="0.1"/><path d="M351.788,677.87v1.676a3.289,3.289,0,0,1-1.6,2.91l-18.292.4a3.276,3.276,0,0,1-1.629-2.926v-1.576Z" transform="translate(-215.797 -412.576)" opacity="0.1"/><path d="M270.185,511.455l-23.835.525v-4.555l23.835-.525Z" transform="translate(-133.967 -240.586)" fill="#3f3d56"/><path d="M270.185,511.455l-23.835.525v-4.555l23.835-.525Z" transform="translate(-133.967 -240.586)" opacity="0.1"/><path d="M272.185,511.455l-23.835.525v-4.555l23.835-.525Z" transform="translate(-135.054 -240.586)" fill="#3f3d56"/><g transform="translate(195.696 96.843)" opacity="0.1"><path d="M551.84,359.5a5.54,5.54,0,0,1-.862-2.28,5.7,5.7,0,0,0,.192,2.417A3.616,3.616,0,0,0,551.84,359.5Z" transform="translate(-531.493 -357.22)"/><path d="M540.029,366.444q-.129-.966-.169-1.944v1.949Z" transform="translate(-525.474 -360.676)"/><path d="M621.693,397.583a11,11,0,0,1,.164-1.392,10.772,10.772,0,0,0,.365-2.464,3.682,3.682,0,0,0-.073-.557c-.078.483-.2.967-.292,1.445A11.548,11.548,0,0,0,621.693,397.583Z" transform="translate(-569.96 -374.284)"/><path d="M600.918,368.264l.5.415a9.485,9.485,0,0,0,1.172-1.166,2.176,2.176,0,0,0,.173-1.912,1.647,1.647,0,0,1-.173.336C602.027,366.766,600.786,367.223,600.918,368.264Z" transform="translate(-558.674 -361.198)"/><path d="M518.287,380.29a7.1,7.1,0,0,0-.4,1.2,7.647,7.647,0,0,1,2.281-.993Z" transform="translate(-513.526 -368.17)"/><path d="M531.523,368.826a6.756,6.756,0,0,1-.858-.646,2.565,2.565,0,0,0,.041.62A4.7,4.7,0,0,1,531.523,368.826Z" transform="translate(-520.472 -362.422)"/><path d="M563.975,428.33c-.187,2.548-1.218,5-2.053,7.418a79.35,79.35,0,0,0-3.325,15.135c-.634,4.618-1.369,9.861-4.79,12.419a12.848,12.848,0,0,1-3.116,1.576c-4.918,1.96-9.876,3.924-15.054,4.639s-10.611.089-15.127-2.884a9.678,9.678,0,0,1-3.275-3.325c-1.218-2.222-1.241-5.007-1.825-7.549a47.438,47.438,0,0,0-1.825-5.527c-1.008-2.826-1.784-5.779-2.555-8.684q-1.072-4.05-2.139-8.106a17.074,17.074,0,0,1-.52-2.5,10.729,10.729,0,0,0,.52,4.071q1.067,4.061,2.139,8.106c.771,2.926,1.546,5.858,2.555,8.684a47.454,47.454,0,0,1,1.825,5.527c.575,2.543.6,5.327,1.825,7.549a9.677,9.677,0,0,0,3.275,3.325c4.516,2.973,9.963,3.6,15.127,2.884s10.118-2.679,15.054-4.639a12.847,12.847,0,0,0,3.116-1.576c3.4-2.558,4.156-7.8,4.79-12.419a79.35,79.35,0,0,1,3.325-15.135c.995-2.879,2.281-5.805,2.062-8.9C563.984,428.393,563.975,428.362,563.975,428.33Z" transform="translate(-508.324 -390.973)"/><path d="M510.146,420.34v-.058a8.429,8.429,0,0,0-.21-2.758,16.007,16.007,0,0,1-.178-1.744,16.513,16.513,0,0,0,.178,3.32C510.009,419.51,510.091,419.925,510.146,420.34Z" transform="translate(-509.094 -385.016)"/><path d="M511.773,397.195a14.742,14.742,0,0,1,1.191-1.928c-.835.919-2.377.1-2.7-1.177a3.512,3.512,0,0,0,0,1.576A2.123,2.123,0,0,0,511.773,397.195Z" transform="translate(-509.33 -374.721)"/></g><path d="M762.674,656.57s1.446,6.041,0,11.295S762.674,656.57,762.674,656.57Z" transform="translate(-450.602 -402.466)" opacity="0.1"/><path d="M775.485,668.3s.607,7.67-.762,9.031S775.485,668.3,775.485,668.3Z" transform="translate(-457.255 -408.033)" opacity="0.1"/><line y1="0.525" x2="46.352" transform="translate(90.779 179.611)" fill="none" stroke="#000" stroke-miterlimit="10" stroke-width="2"/><line y1="0.52" x2="46.352" transform="translate(90.779 186.167)" fill="none" stroke="#000" stroke-miterlimit="10" stroke-width="2"/><line y1="0.525" x2="46.352" transform="translate(90.779 192.718)" fill="none" stroke="#000" stroke-miterlimit="10" stroke-width="2"/></g></svg>