<svg xmlns="http://www.w3.org/2000/svg" width="76" height="70" viewBox="0 0 76 70"><g fill="#fff" stroke="#3a88fd" stroke-width="1"><ellipse cx="38" cy="35" rx="38" ry="35" stroke="none"/><ellipse cx="38" cy="35" rx="37.5" ry="34.5" fill="none"/></g><path d="M57.85,17.323v-1.05c0-.58-.647-1.05-1.446-1.05H31.095V12.6H37.6c1.6,0,2.893-.94,2.893-2.1V2.1C40.5.94,39.2,0,37.6,0H20.248c-1.6,0-2.893.94-2.893,2.1v8.4c0,1.159,1.3,2.1,2.893,2.1h6.508v2.625H1.446c-.8,0-1.446.47-1.446,1.05v1.05c0,.58.647,1.05,1.446,1.05h9.4V21H5.785c-1.6,0-2.893.94-2.893,2.1v8.4c0,1.159,1.3,2.1,2.893,2.1H20.248c1.6,0,2.893-.94,2.893-2.1V23.1c0-1.159-1.3-2.1-2.893-2.1H15.186V18.373H42.665V21H37.6c-1.6,0-2.893.94-2.893,2.1v8.4c0,1.159,1.3,2.1,2.893,2.1H52.065c1.6,0,2.893-.94,2.893-2.1V23.1c0-1.159-1.3-2.1-2.893-2.1H47V18.373h9.4C57.2,18.373,57.85,17.9,57.85,17.323ZM23.14,8.4V4.2H34.71V8.4Zm-5.785,21H8.678V25.2h8.678Zm31.818,0H40.5V25.2h8.678Z" transform="translate(9.573 16.355)" fill="#3a88fd"/></svg>