<svg xmlns="http://www.w3.org/2000/svg" width="139" height="36" viewBox="0 0 139 36"><g transform="translate(-9)"><path d="M29.625.45H6.375A6.453,6.453,0,0,0,0,6.988V29.912A6.453,6.453,0,0,0,6.375,36.45h23.25A6.453,6.453,0,0,0,36,29.912V6.988A6.453,6.453,0,0,0,29.625.45Zm4.86,28.862A5.648,5.648,0,0,1,32.9,33.268a5.367,5.367,0,0,1-3.849,1.643H6.945A5.525,5.525,0,0,1,1.5,29.327V7.573A5.525,5.525,0,0,1,6.945,1.988H29.04a5.516,5.516,0,0,1,5.445,5.585ZM14.235,17.3l4.2,8.277c.075.123.03.246-.09.246h-2.61a.294.294,0,0,1-.315-.2c-.96-2.031-1.935-4.062-2.94-6.246h-.03c-.9,2.062-1.89,4.231-2.85,6.262a.287.287,0,0,1-.27.169H6.855c-.15,0-.165-.123-.09-.215l4.11-8.031L6.9,9.435c-.09-.123,0-.215.09-.215H9.57a.236.236,0,0,1,.27.169c.945,2.031,1.9,4.123,2.805,6.169h.03c.87-2.031,1.83-4.138,2.76-6.154.075-.123.12-.2.27-.2H18.12c.12,0,.165.092.09.215ZM19.17,19.8c0-3.585,2.325-6.385,6.015-6.385a6.486,6.486,0,0,1,.78.031V9.373a.152.152,0,0,1,.15-.154h2.37c.12,0,.15.046.15.123V23.465a11.236,11.236,0,0,0,.075,1.508c0,.092-.03.123-.12.169a8.749,8.749,0,0,1-3.84.892C21.495,26.05,19.17,23.988,19.17,19.8Zm6.8-3.938a2.218,2.218,0,0,0-.87-.154c-1.89,0-3.21,1.492-3.21,3.969,0,2.831,1.35,3.969,3.045,3.969a2.766,2.766,0,0,0,1.035-.169Z" transform="translate(9 -0.45)" fill="#3486ff"/><text transform="translate(52 24.5)" fill="#3486ff" font-size="20" font-family="Arial-BoldMT, Arial" font-weight="700"><tspan x="0" y="0">Adobe XD</tspan></text></g></svg>