<svg xmlns="http://www.w3.org/2000/svg" width="91.521" height="31.5"><text transform="translate(32.521 21.5)" fill="#3486ff" font-size="20" font-family="Arial-BoldMT, Arial" font-weight="700"><tspan x="0" y="0">Figma</tspan></text><path d="M0 5.25A5.25 5.25 0 015.25 0h5.25v10.5H5.25A5.25 5.25 0 010 5.25zM10.5 0h5.25a5.25 5.25 0 110 10.5H10.5z" fill="none"/><path d="M10.5 15.75A5.25 5.25 0 1115.75 21a5.25 5.25 0 01-5.25-5.25zM0 26.25A5.25 5.25 0 015.25 21h5.25v5.25a5.25 5.25 0 01-10.5 0zm0-10.5a5.25 5.25 0 015.25-5.25h5.25V21H5.25A5.25 5.25 0 010 15.75z" fill="none"/></svg>