<svg xmlns="http://www.w3.org/2000/svg" width="77.792" height="36"><g fill="#3486ff"><text transform="translate(32.792 25.001)" font-size="20" font-family="Arial-BoldMT, Arial" font-weight="700"><tspan x="0" y="0">Java</tspan></text><path d="M19.321 22a11.366 11.366 0 011.645-.879s-2.721.492-5.428.717a49.45 49.45 0 01-8.655.091c-4.226-.562 2.32-2.116 2.32-2.116a12.453 12.453 0 00-5.668 1.337c-3.691 1.786 9.141 2.602 15.786.85zm-6-2.257c-1.336-3-5.843-5.639 0-10.252C20.605 3.741 16.867 0 16.867 0c1.512 5.941-5.316 7.741-7.784 11.433-1.68 2.524.823 5.231 4.233 8.311zm8.053-12.388c.007 0-12.319 3.08-6.434 9.858 1.737 2-.457 3.8-.457 3.8s4.409-2.278 2.384-5.126c-1.891-2.658-3.34-3.98 4.507-8.529zm-.429 19.02a.857.857 0 01-.141.183c9.021-2.37 5.7-8.36 1.392-6.841a1.219 1.219 0 00-.577.443 4.954 4.954 0 01.773-.211c2.18-.457 5.309 2.918-1.448 6.427zm3.316 4.38s1.02.837-1.118 1.491c-4.071 1.23-16.931 1.6-20.5.049-1.287-.555 1.125-1.336 1.884-1.5a5.1 5.1 0 011.245-.141c-1.427-1.005-9.232 1.976-3.966 2.827 14.358 2.336 26.186-1.046 22.455-2.726zM8.542 27.844c-5.534 1.547 3.368 4.739 10.413 1.723a13.071 13.071 0 01-1.983-.97 20.577 20.577 0 01-7.453.316c-2.355-.267-.977-1.069-.977-1.069zm12.642 6.834a53.3 53.3 0 01-16.4.253c0-.007.83.682 5.091.956 6.483.415 16.439-.232 16.671-3.3 0 0-.45 1.16-5.358 2.088zm-3.066-9.858a29.046 29.046 0 01-9.619.464c-2.355-.246-.816-1.385-.816-1.385-6.1 2.025 3.389 4.317 11.918 1.821a4.245 4.245 0 01-1.484-.9z"/></g></svg>