<svg xmlns="http://www.w3.org/2000/svg" width="475" height="465.363"><path d="M139.594 460.507a37.813 37.813 0 0011.042-30.364c-1.215-11.34-8.738-21.766-18.5-24.174s-20.883 4.258-23.847 15.168c-1.631-21.034-3.511-42.95-13.282-60.862-8.848-16.219-24.172-27.825-40.78-29.9s-34.094 5.766-44.452 20.768-12.894 36.813-5.64 54.038c5.344 12.689 15.19 22.131 25.506 29.814 33.334 24.615 73.314 34.625 112.584 28.188" fill="#f2f2f2"/><path d="M26.201 336.574a291.636 291.636 0 0137.537 42.652 320.958 320.958 0 0142.275 80.853 1.587 1.587 0 11-3.021.953 323.263 323.263 0 00-24.427-52.9 296.777 296.777 0 00-54.575-69.031c-1.568-1.449.66-3.975 2.211-2.527z" fill="#fff"/><path d="M144.86 460.507a37.812 37.812 0 01-11.042-30.364c1.215-11.34 8.738-21.766 18.5-24.174s20.883 4.258 23.847 15.168c1.631-21.034 3.511-42.95 13.282-60.862 8.848-16.219 24.172-27.825 40.78-29.9s34.094 5.766 44.452 20.768 12.894 36.813 5.64 54.038c-5.344 12.689-15.19 22.131-25.505 29.814-33.338 24.614-73.318 34.624-112.588 28.187" fill="#f2f2f2"/><path d="M258.253 336.574a291.639 291.639 0 00-37.534 42.652 320.958 320.958 0 00-42.274 80.857 1.587 1.587 0 103.021.953c17.015-47.562 44.177-89.482 79-121.927 1.564-1.457-.664-3.98-2.215-2.535z" fill="#fff"/><ellipse cx="25.542" cy="29.233" rx="25.542" ry="29.233" transform="translate(141.946 150.878)" fill="#f2f2f2"/><path d="M88.734 79.341h175.978V90.36H111.199c-37.96 0-68.732 35.219-68.732 78.663v125.188H23.211a3.465 3.465 0 01-3.209-3.673V158.003c0-43.444 30.772-78.663 68.732-78.662z" fill="#f2f2f2"/><path d="M122.583 461.12V293.74h42.845v167.38a4.007 4.007 0 01-3.708 4.243h-35.429a4.007 4.007 0 01-3.708-4.243z" fill="#3f3d56"/><path d="M10.939 290.44V154.334c.044-45.114 31.988-81.673 71.407-81.724h181.542v222.545H15.059c-2.274 0-4.117-2.112-4.12-4.715zm251.3-215.944H82.346c-38.509.05-69.715 35.766-69.759 79.838V290.44a2.671 2.671 0 002.472 2.829h247.182z" fill="#3f3d56"/><path d="M167.487 195.198c-8.187-.011-14.822-7.6-14.831-16.974V56.579a2.671 2.671 0 00-2.471-2.829H92.509c-2.274 0-4.117-2.112-4.12-4.715V4.715c0-2.6 1.846-4.712 4.12-4.715h85.69c2.274 0 4.117 2.112 4.12 4.715v173.509c-.009 9.37-6.644 16.963-14.831 16.974z"/><path d="M270.48 70.724c25.884-.062 46.91 23.9 46.965 53.525v154.942h92.281c7.72-.018 13.991 7.129 14.007 15.964H223.515V124.249c.054-29.623 21.081-53.587 46.965-53.525z" fill="#3f3d56"/><path d="M259.21 158.957l9.725 45.976 190.232-52.7-9.725-45.985a3.3 3.3 0 00-1.943-2.447 2.621 2.621 0 00-1.1-.189L336.438 38.453a2.8 2.8 0 00-3.836 1.055l-53 84.58-19.979 31.894a.54.54 0 00-.073.394 3.865 3.865 0 00-.344 2.579z" fill="#fff"/><path d="M259.554 156.377a.472.472 0 00.167.3.414.414 0 00.357.081.446.446 0 00.246-.2l.066-.11 1.04-1.665 18.896-30.135 52.98-84.561a2 2 0 012.737-.751l109.11 64.657.979.582a.98.98 0 00.121.049 1.171 1.171 0 01.224-.025.444.444 0 00.239-.231.559.559 0 00.031-.377.484.484 0 00-.211-.291l-.135-.082-109.963-65.165a2.8 2.8 0 00-3.836 1.055l-53 84.58-19.979 31.894a.54.54 0 00-.069.395z" fill="#3f3d56"/><path d="M316.687 161.066l4.234.538 31.427 3.984 20.834 2.64 1.231.157 26-23.24 1-.89 6.14-5.488 21.845-19.526.131-1.371 7.77-80.261a4.105 4.105 0 00-3.237-4.631l-103.7-13.147a3.824 3.824 0 00-4.047 3.705l-5.483 56.617-3.04 31.388-2.715 28.077-1.26 13.041-.368 3.777a4.107 4.107 0 003.242 4.63z" fill="#e6e6e6"/><path d="M345.182 90.709l44.918 5.694 15.93 2.019c2.958.375 5.621-2.065 5.949-5.451s-1.8-6.433-4.762-6.808l-19.813-2.511-41.032-5.207c-2.959-.376-5.624 2.065-5.953 5.452s1.804 6.44 4.763 6.812zm-2.557 22.745c.116.024.232.047.35.06l52.143 6.611 8.706 1.106c2.959.375 5.623-2.067 5.95-5.453s-1.806-6.435-4.765-6.81l-12.588-1.594-41.3-5.238-6.951-.882c-2.89-.369-5.514 1.953-5.93 5.246s1.527 6.371 4.39 6.953zm-5.902 20.165a5.382 5.382 0 004.021 2.947l21.372 2.709 38.064 4.826h.008l1.217.155 6.14-5.488a6.975 6.975 0 000-1.254 5.843 5.843 0 00-4.768-5.492l-5.287-.672-20.975-2.656-15.092-1.916-19.495-2.473a5.183 5.183 0 00-5.132 2.807 6.932 6.932 0 00-.074 6.509zm30.019-70.703l11.176 1.417 4.936.627 7.457.944c2.959.375 5.623-2.067 5.95-5.454s-1.806-6.435-4.765-6.81l-23.564-2.985c-2.958-.376-5.623 2.063-5.951 5.449s1.803 6.436 4.761 6.812z" fill="#fff"/><path d="M275.355 97.063l13.626 64.419 22.742 4.949 21.037 4.584 22.571 4.915 7.212 1.571a2.744 2.744 0 002.422-.671l5.786-5.172 3.663-3.274 26-23.24-16.534-78.151a4.325 4.325 0 00-1.025-2.036 3.356 3.356 0 00-3.4-1.054l-101.4 28.094a4.261 4.261 0 00-2.7 5.066z"/><path d="M306.599 148.311c.7 3.309 3.613 5.342 6.506 4.543l59.5-16.485c2.89-.806 4.665-4.136 3.97-7.446a2.2 2.2 0 00-.058-.233c-.79-3.185-3.636-5.088-6.448-4.311l-59.5 16.485c-2.891.8-4.667 4.135-3.97 7.446zm5.123 18.12l21.037 4.584 44.562-12.346c2.893-.8 4.67-4.135 3.97-7.446s-3.613-5.345-6.506-4.543l-59.5 16.485a5.377 5.377 0 00-3.088 2.368 6.439 6.439 0 00-.475.9zm43.608 9.499l7.212 1.571a2.744 2.744 0 002.422-.671l5.786-5.172zm-36.742-62.162c.7 3.309 3.613 5.342 6.506 4.543l23.046-6.385c2.89-.806 4.666-4.136 3.97-7.446a6.5 6.5 0 00-.993-2.344 5.038 5.038 0 00-5.513-2.2l-23.046 6.382c-2.892.8-4.67 4.135-3.97 7.446z" fill="#fff"/><path d="M332.757 171.014l22.574 4.916 7.21 1.571a2.756 2.756 0 002.421-.671l5.79-5.173-2.032.563-4.289 3.829a1.969 1.969 0 01-1.729.479l-5.339-1.162-22.574-4.916zm67.429-26.912l.22 1.039 1-.891zm-67.429 26.912l22.574 4.916 7.21 1.571a2.756 2.756 0 002.421-.671l5.79-5.173-2.032.563-4.289 3.829a1.969 1.969 0 01-1.729.479l-5.339-1.162-22.574-4.916zm0 0l22.574 4.916 7.21 1.571a2.756 2.756 0 002.421-.671l5.79-5.173-2.032.563-4.289 3.829a1.969 1.969 0 01-1.729.479l-5.339-1.162-22.574-4.916zm-73.547-12.058l25.469 120.429a3.025 3.025 0 003.643 2.545l184.365-51.08a3.51 3.51 0 002.223-4.17l-25.468-120.429a3.3 3.3 0 00-1.943-2.447 2.621 2.621 0 00-1.1-.189 2.965 2.965 0 00-1.748.731l-15.131 13.522-21.975 19.646-7.362 6.581v.007h-.006l-27 24.12-4.463 4-4.289 3.829a1.969 1.969 0 01-1.729.479l-5.339-1.162-22.574-4.916-22.594-4.918-49.481-10.779a2.594 2.594 0 00-1.275.032 2.963 2.963 0 00-1.473.977 3.755 3.755 0 00-.75 3.193zm73.547 12.058l22.574 4.916 7.21 1.571a2.755 2.755 0 002.421-.671l5.79-5.173-2.032.563-4.289 3.829a1.969 1.969 0 01-1.729.479l-5.339-1.162-22.574-4.916zm0 0l22.574 4.916 7.21 1.571a2.755 2.755 0 002.421-.671l5.79-5.173-2.032.563-4.289 3.829a1.969 1.969 0 01-1.729.479l-5.339-1.162-22.574-4.916zm0 0l22.574 4.916 7.21 1.571a2.755 2.755 0 002.421-.671l5.79-5.173-2.032.563-4.289 3.829a1.969 1.969 0 01-1.729.479l-5.339-1.162-22.574-4.916z" fill="#fff"/><path d="M332.757 171.014l22.574 4.916 7.21 1.571a2.756 2.756 0 002.421-.671l5.79-5.173-2.032.563-4.289 3.829a1.969 1.969 0 01-1.729.479l-5.339-1.162-22.574-4.916zm67.429-26.912l.22 1.039 1-.891zm-67.429 26.912l22.574 4.916 7.21 1.571a2.756 2.756 0 002.421-.671l5.79-5.173-2.032.563-4.289 3.829a1.969 1.969 0 01-1.729.479l-5.339-1.162-22.574-4.916zm0 0l22.574 4.916 7.21 1.571a2.756 2.756 0 002.421-.671l5.79-5.173-2.032.563-4.289 3.829a1.969 1.969 0 01-1.729.479l-5.339-1.162-22.574-4.916zm-72.364-14.563l.112.1c.019-.035.051-.067.076-.1a2.013 2.013 0 011.965-.724l49.177 10.707 21.034 4.587 22.574 4.916 7.21 1.571a2.756 2.756 0 002.421-.671l5.79-5.173-2.032.563-4.289 3.829a1.969 1.969 0 01-1.729.479l-5.339-1.162-22.574-4.916-22.594-4.918-49.487-10.784a2.594 2.594 0 00-1.275.032zm-1.183 2.505l25.469 120.429a3.025 3.025 0 003.643 2.545l184.365-51.08a3.51 3.51 0 002.223-4.17l-25.468-120.429a3.3 3.3 0 00-1.943-2.447 2.621 2.621 0 00-1.1-.189 2.965 2.965 0 00-1.748.731l-15.131 13.522-21.975 19.646-7.362 6.581v.007h-.006l-27 24.12-4.463 4-4.289 3.829a1.969 1.969 0 01-1.729.479l-5.339-1.162-22.574-4.916-22.594-4.918-49.481-10.779a2.594 2.594 0 00-1.275.032 2.963 2.963 0 00-1.473.977 3.755 3.755 0 00-.75 3.193zm.84-.233a2.731 2.731 0 01.38-2.066.32.32 0 01.075-.111c.019-.035.051-.067.076-.1a2.013 2.013 0 011.965-.724l49.177 10.707 21.034 4.587 22.574 4.916 7.21 1.571a2.756 2.756 0 002.421-.671l5.79-5.173 3.662-3.274 25.993-23.243 1-.891 6.136-5.486 21.849-19.529 15.8-14.118a2.046 2.046 0 01.813-.45 1.456 1.456 0 01.251-.047 1.165 1.165 0 01.224-.025 1.955 1.955 0 01.742.139 2.382 2.382 0 011.386 1.75l25.471 120.426a2.779 2.779 0 01-.255 1.87 2.2 2.2 0 01-1.337 1.115l-184.362 51.079a2.161 2.161 0 01-2.6-1.823zm72.707 12.291l22.574 4.916 7.21 1.571a2.755 2.755 0 002.421-.671l5.79-5.173-2.032.563-4.289 3.829a1.969 1.969 0 01-1.729.479l-5.339-1.162-22.574-4.916zm0 0l22.574 4.916 7.21 1.571a2.755 2.755 0 002.421-.671l5.79-5.173-2.032.563-4.289 3.829a1.969 1.969 0 01-1.729.479l-5.339-1.162-22.574-4.916zm0 0l22.574 4.916 7.21 1.571a2.755 2.755 0 002.421-.671l5.79-5.173-2.032.563-4.289 3.829a1.969 1.969 0 01-1.729.479l-5.339-1.162-22.574-4.916z" fill="#3f3d56"/><path d="M424.641 207.191c-.865-4.109 1.34-8.243 4.928-9.242l23.269-6.447c3.591-.995 7.206 1.53 8.076 5.64s-1.337 8.248-4.928 9.242l-23.269 6.447c-3.59.989-7.203-1.534-8.076-5.64z"/><ellipse cx="5.768" cy="6.601" rx="5.768" ry="6.601" transform="translate(161.72 171.623)" fill="#fff"/></svg>