<svg xmlns="http://www.w3.org/2000/svg" width="475" height="405.74"><path d="M475 202.862a177.147 177.147 0 01-19.126 79.885l-.787 1.548c-44.074 85.644-150.912 134.516-258.8 118.386q-2.139-.324-4.272-.672a266.536 266.536 0 01-42.961-10.821q-3.383-1.162-6.717-2.407a197.53 197.53 0 01-4.539-1.747C53.813 353.787.049 281.93 0 202.862 0 90.826 106.334 0 237.5 0S475 90.826 475 202.862z"/><path d="M196.289 402.682q-2.139-.323-4.272-.672c-.927-22.993-4.111-70.186-14.967-119.611-5.937-27.051-14.18-54.779-25.612-79.566a232.136 232.136 0 00-13.4-25.112c-11.552-18.636-25.563-34.325-42.553-44.954l2.5-2.917q21.2 13.27 38.1 37.26 5.07 7.184 9.739 15.329 5.007 8.715 9.549 18.5 2.9 6.23 5.6 12.892 11.763 28.926 20 66.008 1.824 8.193 3.471 16.787a730.677 730.677 0 0111.845 106.056zm-53.95-13.901a204.11 204.11 0 01-4.539-1.746c-1.468-13.624-4.167-30.525-9.1-46.568a138.015 138.015 0 00-8.3-21.126c-5.628-11.254-12.915-20.82-22.338-26.721l2.5-2.911c9.865 6.17 17.475 15.923 23.357 27.333 6.626 12.856 11.046 27.818 13.99 42.115a289.729 289.729 0 014.43 29.624z" opacity=".2"/><ellipse cx="21.142" cy="18.059" rx="21.142" ry="18.059" transform="translate(50.713 96.566)" opacity=".2"/><ellipse cx="21.142" cy="18.059" rx="21.142" ry="18.059" transform="translate(57.522 252.019)" opacity=".2"/><path d="M155.79 144.957c-4.483 21.605 5.414 41.168 5.414 41.168s17.166-15.466 21.649-37.071-5.414-41.168-5.414-41.168-17.17 15.467-21.649 37.071zm-70.263 51.286c24.126 7.535 48.368 2.7 48.368 2.7a93.547 93.547 0 00-39-24.588c-24.126-7.535-48.369-2.7-48.369-2.7a93.55 93.55 0 0039.001 24.588zm-4.092 137.66c16.91 5.281 33.927 1.835 33.927 1.835a65.187 65.187 0 00-27.311-17.29c-16.91-5.282-33.926-1.836-33.926-1.836a65.192 65.192 0 0027.31 17.291z" opacity=".2"/><ellipse cx="92.59" cy="79.086" rx="92.59" ry="79.086" transform="translate(144.422 89.613)" fill="#d0cde1"/><path d="M200.844 229.248s11.573 46.957 11.573 51.9 54.976 27.186 54.976 27.186l49.189-7.414 17.36-44.486s-28.931-37.07-28.931-51.899z" fill="#d0cde1"/><path d="M455.873 282.747l-.787 1.548c-44.074 85.644-150.911 134.516-258.8 118.387q-2.14-.324-4.272-.672a266.572 266.572 0 01-42.961-10.822q-3.383-1.162-6.717-2.407a209.213 209.213 0 01-4.54-1.745 249.432 249.432 0 01-38.82-19.373l-10.975-27.2 6.169-4.021 12.69-8.276 13.54-8.829 3.52-2.3 53.128-34.643 3.921-2.557 27.615-18.006.007-.005s29.863 41.563 73.267 29.2 42.455-47.793 42.455-47.793zM156.719 104.982s29.4-54.4 85.741-41.849 88.191 31.387 90.641 50.219-1.225 47.081-1.225 47.081-6.125-38.711-45.32-30.341-100.44 2.092-100.44 2.092l-9.8 75.329s-11.024-13.6-23.272-5.231-35.521-80.56 3.675-97.3z" fill="#2f2e41"/><path d="M149.056 391.187q-3.384-1.161-6.717-2.407a202.23 202.23 0 01-4.539-1.746 244.234 244.234 0 01-61.547-35.231 76.747 76.747 0 0111.749-11.337h43.4l6.507 18.69zm268.796-112.509l37.234 5.618a202.128 202.128 0 01-39.883 53.162z" fill="#2f2e41"/></svg>