<svg xmlns="http://www.w3.org/2000/svg" width="475" height="496.98"><path d="M475 463.1c0 18.71-106.331 33.879-237.5 33.879S0 481.81 0 463.1c0-13.246 53.3-24.721 130.977-30.287 32.032-2.3 68.224-3.592 106.523-3.592 15.744 0 31.128.219 46.006.634C392.656 432.915 475 446.634 475 463.1z" fill="#3f3d56"/><ellipse cx="91.169" cy="10.565" rx="91.169" ry="10.565" transform="translate(115.685 448.893)" opacity=".1"/><ellipse cx="86.19" cy="87.431" rx="86.19" ry="87.431" transform="translate(120.282 292.247)" fill="#3f3d56"/><path d="M180.04 431.407h53.629v46.63H180.04z"/><path d="M303.771 442.7l-3.065 16.029 19.919 2.914 13.024-7.286-.766-11.657z" fill="#575a89"/><path d="M203.407 141.794s-1.532 16.758-5.363 17.486 8.427 29.872 8.427 29.872h18.388l14.557-3.643-6.9-16.029s-9.194-11.657-2.3-21.129-26.809-6.557-26.809-6.557z" fill="#a0616a"/><path d="M203.407 141.794s-1.532 16.758-5.363 17.486 8.427 29.872 8.427 29.872h18.388l14.557-3.643-6.9-16.029s-9.194-11.657-2.3-21.129-26.809-6.557-26.809-6.557z" opacity=".1"/><path d="M165.105 270.025s-19.919 36.429-3.831 43.715 19.919 6.557 19.919 8.743-3.065 1.457-1.532 5.1-3.065 18.215 1.532 26.958 3.065 15.3 3.065 15.3 0 .729 1.532 3.643 2.3 5.1 1.532 6.557-5.363 10.929-.766 13.115 28.347 3.643 30.645 0-2.3-5.829 0-8.014 3.831-2.914 2.3-4.371-3.065-19.672-3.065-19.672 3.831-21.129 2.3-24.043-3.831-5.829-2.3-8.014 3.065-1.457 3.831-4.372 2.3-9.472 2.3-9.472l8.427-.729 19.919 3.643s22.218 23.315 46.734 30.6c0 0 6.9 6.557 9.194 6.557s2.3 0 1.532 1.457-3.065 1.457-1.532 2.914 3.831-.729 2.3 1.457-3.065 2.186-1.532 3.643-.766 9.472-.766 10.2-6.9 69.216-4.6 70.673 34.476 5.829 36.774 0-1.532-13.115-1.532-13.115 11.492-87.43 8.427-93.259-13.79-32.058-71.25-48.815c0 0-16.089-2.914-16.089-5.1s-1.532-16.029-4.6-16.758-20.685-1.457-20.685-1.457l-22.218 6.557-30.645-5.1z" fill="#2f2e41"/><path d="M191.915 392.428l-3.831 13.115s-3.065 21.129.766 26.229c3.009 4.006 8.381 8.911 18.345 9.772a12.327 12.327 0 0012.855-8.1 3.5 3.5 0 00.212-.943c0-1.457-2.3-18.943-2.3-18.943l-3.831-18.215-.766-5.1zm111.855 62.658s-3.831-3.643-4.6 0-3.831 18.943 1.532 19.672 56.694 8.014 62.056 5.1 15.323-7.286 9.194-9.472-23.75-8.743-23.75-8.743-9.96-12.386-11.492-13.115-9.96.729-13.79 3.643-19.15 2.915-19.15 2.915z" fill="#2f2e41"/><ellipse cx="23.75" cy="22.586" rx="23.75" ry="22.586" transform="translate(198.044 111.921)" fill="#a0616a"/><path d="M219.5 185.508l-9.193-9.472-10.191-18.943s-7.43-2.186-8.963 1.457-29.113 15.3-29.113 15.3 6.9 61.2 3.831 67.03-8.427 29.144-3.831 31.329 26.048 0 32.943 2.914 26.815 2.914 32.177-.729 6.9-6.557 12.258-4.371c4.566 1.861 15.239-61.756 18.312-80.714a8.452 8.452 0 00-3.76-8.386c-6.874-4.586-19.255-12.488-21.447-11.446-3.068 1.46-13.023 16.031-13.023 16.031z" fill="#575a89"/><path d="M252.439 182.594a8.8 8.8 0 016.827 7.429l6.2 53.044s-15.323 31.329-22.984 10.2 9.957-70.673 9.957-70.673z" fill="#575a89"/><path d="M250.907 248.167l16.855-4.372s3.065 20.4 6.129 20.4-10.726 11.657-17.621 10.2-16.855-6.557-17.621-10.2 6.9-18.943 6.9-18.943z" fill="#575a89"/><path d="M203.866 144.251c1.615-3.386 1.335-7.337 2.67-10.832a13.31 13.31 0 018.733-7.923 14.162 14.162 0 0111.917 1.817c1.717 1.165 3.439 2.8 5.536 2.579 2.258-.239 4.271-2.635 6.347-1.757 2.3.973 1.679 4.894 4.01 5.8a3.012 3.012 0 003.384-1.323 7.864 7.864 0 00.985-3.626c.322-3.107.612-6.4-.8-9.213a21.653 21.653 0 01-1.554-2.98 9.709 9.709 0 01-.3-2.939c-.013-3.652-.293-7.462-2.226-10.619-2.145-3.5-6.11-5.742-10.246-6.719a41.067 41.067 0 00-12.716-.485c-7.02.565-14.341 1.777-19.872 5.927a7.565 7.565 0 00-1.91 1.909 9.534 9.534 0 00-1.018 2.8 56.176 56.176 0 01-5.338 13.317 28.25 28.25 0 00-2.755 5.658 7.01 7.01 0 00.681 6.019c1 1.4 2.6 2.153 3.853 3.3s1.826 3.326 3.2 4.187c1.2.752 2.644.221 3.871 1.018 1.579 1.021 1.692 3.265 3.548 4.085z" fill="#2f2e41"/><path d="M223.327 196.437l2.3-4.372s33.71 9.472 40.6 18.215c0 0 16.855-10.2 26.048-8.743l9.194 1.457-28.344 24.044-36.008-2.914z" fill="#f2f2f2"/><path d="M221.794 192.066l-31.411 41.53 45.2 21.129s4.226 2.186 7.476 0l30.066-13.116 28.347-38.615-28.347 13.843s-3.065-5.829-9.194-2.914z"/><path d="M270.06 265.653l6.129-15.3s13.79-16.757 6.129-24.772-16.089 23.315-16.089 23.315zm-70.715-2.442l13.374-10.311s20.77-7.916 18.371-18.5-26.217 12.492-26.217 12.492z" fill="#a0616a"/><path d="M166.25 189.516h-.766s-11.875-13.479-14.173 4.731-9.96 78.688 9.96 80.873a50.064 50.064 0 0034.088-9.103s14.556-21.129 9.193-21.129c-2.595 0-9.652-1.108-16.089-.729-6.867.405-13.037 2.245-12.641.364.771-3.642 11.88-49.907-9.572-55.007z" opacity=".1"/><path d="M165.101 175.308l-3.065-1.457s-12.258 2.186-14.556 20.4-9.96 78.688 9.96 80.873 46.734-2.914 46.734-2.914 5.363-27.686 0-27.686-32.943 3.643-32.177 0 14.555-64.116-6.896-69.216zm93.851 81.967l8.448-12.314 5.342 20.328-13.79 5.829z" fill="#575a89"/><ellipse cx="20.685" cy="19.672" rx="20.685" ry="19.672" transform="translate(64.717 42.341)" fill="#f2f2f2"/><path fill="#f2f2f2" d="M60.887 208.459h49.032v46.63H60.887zM285 0l12.411 20.442 12.41 20.442h-49.644l12.41-20.442z"/></svg>