<svg xmlns="http://www.w3.org/2000/svg" width="76" height="70"><g fill="#fff" stroke="#3a88fd"><ellipse cx="38" cy="35" rx="38" ry="35" stroke="none"/><ellipse cx="38" cy="35" rx="37.5" ry="34.5" fill="none"/></g><path d="M67.423 33.678v-1.05c0-.58-.647-1.05-1.446-1.05H40.668v-2.623h6.505c1.6 0 2.893-.94 2.893-2.1v-8.4c.007-1.16-1.293-2.1-2.893-2.1H29.821c-1.6 0-2.893.94-2.893 2.1v8.4c0 1.159 1.3 2.1 2.893 2.1h6.508v2.625h-25.31c-.8 0-1.446.47-1.446 1.05v1.05c0 .58.647 1.05 1.446 1.05h9.4v2.625h-5.061c-1.6 0-2.893.94-2.893 2.1v8.4c0 1.159 1.3 2.1 2.893 2.1h14.463c1.6 0 2.893-.94 2.893-2.1v-8.4c0-1.159-1.3-2.1-2.893-2.1h-5.062v-2.627h27.479v2.627h-5.065c-1.6 0-2.893.94-2.893 2.1v8.4c0 1.159 1.3 2.1 2.893 2.1h14.465c1.6 0 2.893-.94 2.893-2.1v-8.4c0-1.159-1.3-2.1-2.893-2.1h-5.065v-2.627h9.4c.8 0 1.45-.473 1.45-1.05zm-34.71-8.923v-4.2h11.57v4.2zm-5.785 21h-8.677v-4.2h8.678zm31.818 0h-8.673v-4.2h8.678z" fill="#3a88fd"/></svg>