<svg xmlns="http://www.w3.org/2000/svg" width="139" height="36"><g fill="#3486ff"><path d="M29.625 0H6.375A6.453 6.453 0 000 6.538v22.924A6.453 6.453 0 006.375 36h23.25A6.453 6.453 0 0036 29.462V6.538A6.453 6.453 0 0029.625 0zm4.86 28.862a5.648 5.648 0 01-1.585 3.956 5.367 5.367 0 01-3.849 1.643H6.945A5.525 5.525 0 011.5 28.877V7.123a5.525 5.525 0 015.445-5.585H29.04a5.516 5.516 0 015.445 5.585zM14.235 16.85l4.2 8.277c.075.123.03.246-.09.246h-2.61a.294.294 0 01-.315-.2c-.96-2.031-1.935-4.062-2.94-6.246h-.03c-.9 2.062-1.89 4.231-2.85 6.262a.287.287 0 01-.27.169H6.855c-.15 0-.165-.123-.09-.215l4.11-8.031L6.9 8.985c-.09-.123 0-.215.09-.215h2.58a.236.236 0 01.27.169c.945 2.031 1.9 4.123 2.805 6.169h.03c.87-2.031 1.83-4.138 2.76-6.154.075-.123.12-.2.27-.2h2.415c.12 0 .165.092.09.215zm4.935 2.5c0-3.585 2.325-6.385 6.015-6.385a6.486 6.486 0 01.78.031V8.923a.152.152 0 01.15-.154h2.37c.12 0 .15.046.15.123v14.123a11.236 11.236 0 00.075 1.508c0 .092-.03.123-.12.169a8.749 8.749 0 01-3.84.892c-3.255.016-5.58-2.046-5.58-6.234zm6.8-3.938a2.218 2.218 0 00-.87-.154c-1.89 0-3.21 1.492-3.21 3.969 0 2.831 1.35 3.969 3.045 3.969a2.766 2.766 0 001.035-.169z"/><text transform="translate(43 24.5)" font-size="20" font-family="Arial-BoldMT, Arial" font-weight="700"><tspan x="0" y="0">Adobe XD</tspan></text></g></svg>